%TF.GenerationSoftware,KiCad,Pcbnew,10.99.0-1181-g2d5a581dc2*%
%TF.CreationDate,2026-07-18T15:06:10+07:00*%
%TF.ProjectId,AnalogIsolatorproduction,416e616c-6f67-4497-936f-6c61746f7270,rev?*%
%TF.SameCoordinates,Original*%
%TF.FileFunction,Soldermask,Top*%
%TF.FilePolarity,Negative*%
%FSLAX46Y46*%
G04 Gerber Fmt 4.6, Leading zero omitted, Abs format (unit mm)*
G04 Created by KiCad (PCBNEW 10.99.0-1181-g2d5a581dc2) date 2026-07-18 15:06:10*
%MOMM*%
%LPD*%
G01*
G04 APERTURE LIST*
G04 Aperture macros list*
%AMRoundRect*
0 Rectangle with rounded corners*
0 $1 Rounding radius*
0 $2 $3 $4 $5 $6 $7 $8 $9 X,Y pos of 4 corners*
0 Add a 4 corners polygon primitive as box body*
4,1,4,$2,$3,$4,$5,$6,$7,$8,$9,$2,$3,0*
0 Add four circle primitives for the rounded corners*
1,1,$1+$1,$2,$3*
1,1,$1+$1,$4,$5*
1,1,$1+$1,$6,$7*
1,1,$1+$1,$8,$9*
0 Add four rect primitives between the rounded corners*
20,1,$1+$1,$2,$3,$4,$5,0*
20,1,$1+$1,$4,$5,$6,$7,0*
20,1,$1+$1,$6,$7,$8,$9,0*
20,1,$1+$1,$8,$9,$2,$3,0*%
G04 Aperture macros list end*
%ADD10RoundRect,0.250000X0.250000X0.475000X-0.250000X0.475000X-0.250000X-0.475000X0.250000X-0.475000X0*%
%ADD11RoundRect,0.200000X0.275000X-0.200000X0.275000X0.200000X-0.275000X0.200000X-0.275000X-0.200000X0*%
%ADD12RoundRect,0.250000X0.450000X-0.262500X0.450000X0.262500X-0.450000X0.262500X-0.450000X-0.262500X0*%
%ADD13RoundRect,0.200000X0.200000X0.275000X-0.200000X0.275000X-0.200000X-0.275000X0.200000X-0.275000X0*%
%ADD14R,0.600000X1.000000*%
%ADD15RoundRect,0.218750X-0.218750X-0.256250X0.218750X-0.256250X0.218750X0.256250X-0.218750X0.256250X0*%
%ADD16RoundRect,0.200000X-0.200000X-0.275000X0.200000X-0.275000X0.200000X0.275000X-0.200000X0.275000X0*%
%ADD17RoundRect,0.225000X-0.225000X-0.250000X0.225000X-0.250000X0.225000X0.250000X-0.225000X0.250000X0*%
%ADD18C,2.200000*%
%ADD19C,2.000000*%
%ADD20RoundRect,0.225000X0.225000X0.250000X-0.225000X0.250000X-0.225000X-0.250000X0.225000X-0.250000X0*%
%ADD21R,2.000000X1.800000*%
%ADD22RoundRect,0.225000X-0.250000X0.225000X-0.250000X-0.225000X0.250000X-0.225000X0.250000X0.225000X0*%
%ADD23R,0.800000X1.000000*%
%ADD24R,0.800000X0.864008*%
%ADD25RoundRect,0.225000X0.250000X-0.225000X0.250000X0.225000X-0.250000X0.225000X-0.250000X-0.225000X0*%
G04 APERTURE END LIST*
D10*
%TO.C,C25*%
X143550000Y-89600000D03*
X145450000Y-89600000D03*
%TD*%
D11*
%TO.C,R31*%
X126800000Y-97900000D03*
X126800000Y-99550000D03*
%TD*%
D12*
%TO.C,R24*%
X128200000Y-94437500D03*
X128200000Y-96262500D03*
%TD*%
D13*
%TO.C,R22*%
X149350000Y-94000000D03*
X151000000Y-94000000D03*
%TD*%
D14*
%TO.C,U19*%
X151000000Y-100337462D03*
X152899924Y-100337462D03*
X152899924Y-102537614D03*
X151949962Y-102537614D03*
X151000000Y-102537614D03*
%TD*%
D15*
%TO.C,D4*%
X126812500Y-83600000D03*
X125237500Y-83600000D03*
%TD*%
D16*
%TO.C,R27*%
X130825000Y-83600000D03*
X129175000Y-83600000D03*
%TD*%
D17*
%TO.C,C26*%
X154150000Y-92400000D03*
X152600000Y-92400000D03*
%TD*%
D18*
%TO.C,U23*%
X160550000Y-91999988D03*
X160550000Y-96999988D03*
X160550000Y-101999988D03*
%TD*%
D12*
%TO.C,R25*%
X130200000Y-94437500D03*
X130200000Y-96262500D03*
%TD*%
D14*
%TO.C,U17*%
X128712919Y-101619914D03*
X130613097Y-101619914D03*
X130612843Y-103820066D03*
X129662881Y-103820066D03*
X128713173Y-103820066D03*
%TD*%
D12*
%TO.C,R26*%
X132200000Y-94437500D03*
X132200000Y-96262500D03*
%TD*%
D11*
%TO.C,R23*%
X149099924Y-100537614D03*
X149099924Y-102187614D03*
%TD*%
D13*
%TO.C,R30*%
X121475000Y-86300000D03*
X123125000Y-86300000D03*
%TD*%
D19*
%TO.C,U18*%
X148350013Y-83400000D03*
X143270003Y-83400000D03*
X138189992Y-83400000D03*
X135649987Y-83400000D03*
%TD*%
D20*
%TO.C,C24*%
X129250000Y-86800000D03*
X130800000Y-86800000D03*
%TD*%
D21*
%TO.C,U15*%
X134600000Y-100600000D03*
X134600000Y-98070003D03*
X134600000Y-95529997D03*
X134600000Y-92989992D03*
X146600000Y-92989992D03*
X146600000Y-95529997D03*
X146600000Y-98070003D03*
X146600000Y-100610008D03*
%TD*%
D17*
%TO.C,C29*%
X152649924Y-97562614D03*
X151099924Y-97562614D03*
%TD*%
D20*
%TO.C,C21*%
X148925000Y-89600000D03*
X150475000Y-89600000D03*
%TD*%
D22*
%TO.C,C22*%
X132200000Y-103425000D03*
X132200000Y-101875000D03*
%TD*%
D18*
%TO.C,U22*%
X120600000Y-101600013D03*
X120600000Y-96600013D03*
X120600000Y-91600013D03*
%TD*%
D11*
%TO.C,M3.3V3*%
X130600000Y-97900000D03*
X130600000Y-99550000D03*
%TD*%
D20*
%TO.C,C23*%
X129250000Y-85200000D03*
X130800000Y-85200000D03*
%TD*%
D13*
%TO.C,R21*%
X152550000Y-94000000D03*
X154200000Y-94000000D03*
%TD*%
D22*
%TO.C,C30*%
X127000000Y-103425000D03*
X127000000Y-101875000D03*
%TD*%
D12*
%TO.C,R29*%
X132200000Y-89812500D03*
X132200000Y-91637500D03*
%TD*%
D11*
%TO.C,M2.4V3*%
X128900000Y-97875000D03*
X128900000Y-99525000D03*
%TD*%
D23*
%TO.C,U21*%
X125850038Y-85500026D03*
X126800000Y-87800000D03*
X124900076Y-87800000D03*
%TD*%
D24*
%TO.C,L3*%
X130724898Y-88400000D03*
X129325102Y-88400000D03*
%TD*%
D25*
%TO.C,C28*%
X126400000Y-94687500D03*
X126400000Y-96237500D03*
%TD*%
D11*
%TO.C,M5V3*%
X132200000Y-97900000D03*
X132200000Y-99550000D03*
%TD*%
D22*
%TO.C,C27*%
X154699924Y-102137614D03*
X154699924Y-100587614D03*
%TD*%
D19*
%TO.C,U24*%
X186849987Y-83400000D03*
X189389992Y-83400000D03*
X194470003Y-83400000D03*
X199550013Y-83400000D03*
%TD*%
D20*
%TO.C,C34*%
X182000000Y-86800000D03*
X180450000Y-86800000D03*
%TD*%
D21*
%TO.C,U16*%
X197800000Y-100610008D03*
X197800000Y-98070003D03*
X197800000Y-95529997D03*
X197800000Y-92989992D03*
X185800000Y-92989992D03*
X185800000Y-95529997D03*
X185800000Y-98070003D03*
X185800000Y-100600000D03*
%TD*%
D23*
%TO.C,U26*%
X176100076Y-87800000D03*
X178000000Y-87800000D03*
X177050038Y-85500026D03*
%TD*%
D17*
%TO.C,C39*%
X202299924Y-97562614D03*
X203849924Y-97562614D03*
%TD*%
D24*
%TO.C,L4*%
X180525102Y-88400000D03*
X181924898Y-88400000D03*
%TD*%
D20*
%TO.C,C31*%
X201675000Y-89600000D03*
X200125000Y-89600000D03*
%TD*%
D22*
%TO.C,C32*%
X183400000Y-101875000D03*
X183400000Y-103425000D03*
%TD*%
D11*
%TO.C,M5V4*%
X183400000Y-99550000D03*
X183400000Y-97900000D03*
%TD*%
D18*
%TO.C,U27*%
X171800000Y-91600013D03*
X171800000Y-96600013D03*
X171800000Y-101600013D03*
%TD*%
D22*
%TO.C,C40*%
X178200000Y-101875000D03*
X178200000Y-103425000D03*
%TD*%
%TO.C,C37*%
X205899924Y-100587614D03*
X205899924Y-102137614D03*
%TD*%
D13*
%TO.C,R28*%
X205400000Y-94000000D03*
X203750000Y-94000000D03*
%TD*%
D11*
%TO.C,M3.3V4*%
X181800000Y-99550000D03*
X181800000Y-97900000D03*
%TD*%
%TO.C,M2.4V4*%
X180100000Y-99525000D03*
X180100000Y-97875000D03*
%TD*%
D20*
%TO.C,C33*%
X182000000Y-85200000D03*
X180450000Y-85200000D03*
%TD*%
D12*
%TO.C,R38*%
X183400000Y-91637500D03*
X183400000Y-89812500D03*
%TD*%
D25*
%TO.C,C38*%
X177600000Y-96237500D03*
X177600000Y-94687500D03*
%TD*%
D16*
%TO.C,R37*%
X180375000Y-83600000D03*
X182025000Y-83600000D03*
%TD*%
D17*
%TO.C,C36*%
X203800000Y-92400000D03*
X205350000Y-92400000D03*
%TD*%
D18*
%TO.C,U28*%
X211750000Y-101999988D03*
X211750000Y-96999988D03*
X211750000Y-91999988D03*
%TD*%
D15*
%TO.C,D5*%
X176437500Y-83600000D03*
X178012500Y-83600000D03*
%TD*%
D10*
%TO.C,C35*%
X196650000Y-89600000D03*
X194750000Y-89600000D03*
%TD*%
D14*
%TO.C,U25*%
X202200000Y-102537614D03*
X203149962Y-102537614D03*
X204099924Y-102537614D03*
X204099924Y-100337462D03*
X202200000Y-100337462D03*
%TD*%
D12*
%TO.C,R35*%
X181400000Y-96262500D03*
X181400000Y-94437500D03*
%TD*%
D11*
%TO.C,R40*%
X178000000Y-99550000D03*
X178000000Y-97900000D03*
%TD*%
D12*
%TO.C,R34*%
X179400000Y-96262500D03*
X179400000Y-94437500D03*
%TD*%
D13*
%TO.C,R32*%
X202200000Y-94000000D03*
X200550000Y-94000000D03*
%TD*%
D12*
%TO.C,R36*%
X183400000Y-96262500D03*
X183400000Y-94437500D03*
%TD*%
D11*
%TO.C,R33*%
X200299924Y-102187614D03*
X200299924Y-100537614D03*
%TD*%
D13*
%TO.C,R39*%
X174325000Y-86300000D03*
X172675000Y-86300000D03*
%TD*%
D14*
%TO.C,U20*%
X179913173Y-103820066D03*
X180862881Y-103820066D03*
X181812843Y-103820066D03*
X181813097Y-101619914D03*
X179912919Y-101619914D03*
%TD*%
D10*
%TO.C,C5*%
X143550000Y-55769254D03*
X145450000Y-55769254D03*
%TD*%
D11*
%TO.C,R11*%
X126800000Y-64069254D03*
X126800000Y-65719254D03*
%TD*%
D12*
%TO.C,R4*%
X128200000Y-60606754D03*
X128200000Y-62431754D03*
%TD*%
D13*
%TO.C,R2*%
X149350000Y-60169254D03*
X151000000Y-60169254D03*
%TD*%
D14*
%TO.C,U5*%
X151000000Y-66506716D03*
X152899924Y-66506716D03*
X152899924Y-68706868D03*
X151949962Y-68706868D03*
X151000000Y-68706868D03*
%TD*%
D15*
%TO.C,D2*%
X126812500Y-49769254D03*
X125237500Y-49769254D03*
%TD*%
D16*
%TO.C,R7*%
X130825000Y-49769254D03*
X129175000Y-49769254D03*
%TD*%
D17*
%TO.C,C6*%
X154150000Y-58569254D03*
X152600000Y-58569254D03*
%TD*%
D18*
%TO.C,U9*%
X160550000Y-58169242D03*
X160550000Y-63169242D03*
X160550000Y-68169242D03*
%TD*%
D12*
%TO.C,R5*%
X130200000Y-60606754D03*
X130200000Y-62431754D03*
%TD*%
D14*
%TO.C,U3*%
X128712919Y-67789168D03*
X130613097Y-67789168D03*
X130612843Y-69989320D03*
X129662881Y-69989320D03*
X128713173Y-69989320D03*
%TD*%
D12*
%TO.C,R6*%
X132200000Y-60606754D03*
X132200000Y-62431754D03*
%TD*%
D11*
%TO.C,R3*%
X149099924Y-66706868D03*
X149099924Y-68356868D03*
%TD*%
D13*
%TO.C,R10*%
X121475000Y-52469254D03*
X123125000Y-52469254D03*
%TD*%
D19*
%TO.C,U4*%
X148350013Y-49569254D03*
X143270003Y-49569254D03*
X138189992Y-49569254D03*
X135649987Y-49569254D03*
%TD*%
D20*
%TO.C,C4*%
X129250000Y-52969254D03*
X130800000Y-52969254D03*
%TD*%
D21*
%TO.C,U1*%
X134600000Y-66769254D03*
X134600000Y-64239257D03*
X134600000Y-61699251D03*
X134600000Y-59159246D03*
X146600000Y-59159246D03*
X146600000Y-61699251D03*
X146600000Y-64239257D03*
X146600000Y-66779262D03*
%TD*%
D17*
%TO.C,C9*%
X152649924Y-63731868D03*
X151099924Y-63731868D03*
%TD*%
D20*
%TO.C,C1*%
X148925000Y-55769254D03*
X150475000Y-55769254D03*
%TD*%
D22*
%TO.C,C2*%
X132200000Y-69594254D03*
X132200000Y-68044254D03*
%TD*%
D18*
%TO.C,U8*%
X120600000Y-67769267D03*
X120600000Y-62769267D03*
X120600000Y-57769267D03*
%TD*%
D11*
%TO.C,M3.3V1*%
X130600000Y-64069254D03*
X130600000Y-65719254D03*
%TD*%
D20*
%TO.C,C3*%
X129250000Y-51369254D03*
X130800000Y-51369254D03*
%TD*%
D13*
%TO.C,R1*%
X152550000Y-60169254D03*
X154200000Y-60169254D03*
%TD*%
D22*
%TO.C,C10*%
X127000000Y-69594254D03*
X127000000Y-68044254D03*
%TD*%
D12*
%TO.C,R9*%
X132200000Y-55981754D03*
X132200000Y-57806754D03*
%TD*%
D11*
%TO.C,M2.4V1*%
X128900000Y-64044254D03*
X128900000Y-65694254D03*
%TD*%
D23*
%TO.C,U7*%
X125850038Y-51669280D03*
X126800000Y-53969254D03*
X124900076Y-53969254D03*
%TD*%
D24*
%TO.C,L1*%
X130724898Y-54569254D03*
X129325102Y-54569254D03*
%TD*%
D25*
%TO.C,C8*%
X126400000Y-60856754D03*
X126400000Y-62406754D03*
%TD*%
D11*
%TO.C,M5V1*%
X132200000Y-64069254D03*
X132200000Y-65719254D03*
%TD*%
D22*
%TO.C,C7*%
X154699924Y-68306868D03*
X154699924Y-66756868D03*
%TD*%
D19*
%TO.C,U10*%
X186849987Y-49569254D03*
X189389992Y-49569254D03*
X194470003Y-49569254D03*
X199550013Y-49569254D03*
%TD*%
D20*
%TO.C,C14*%
X182000000Y-52969254D03*
X180450000Y-52969254D03*
%TD*%
D21*
%TO.C,U2*%
X197800000Y-66779262D03*
X197800000Y-64239257D03*
X197800000Y-61699251D03*
X197800000Y-59159246D03*
X185800000Y-59159246D03*
X185800000Y-61699251D03*
X185800000Y-64239257D03*
X185800000Y-66769254D03*
%TD*%
D23*
%TO.C,U12*%
X176100076Y-53969254D03*
X178000000Y-53969254D03*
X177050038Y-51669280D03*
%TD*%
D17*
%TO.C,C19*%
X202299924Y-63731868D03*
X203849924Y-63731868D03*
%TD*%
D24*
%TO.C,L2*%
X180525102Y-54569254D03*
X181924898Y-54569254D03*
%TD*%
D20*
%TO.C,C11*%
X201675000Y-55769254D03*
X200125000Y-55769254D03*
%TD*%
D22*
%TO.C,C12*%
X183400000Y-68044254D03*
X183400000Y-69594254D03*
%TD*%
D11*
%TO.C,M5V2*%
X183400000Y-65719254D03*
X183400000Y-64069254D03*
%TD*%
D18*
%TO.C,U13*%
X171800000Y-57769267D03*
X171800000Y-62769267D03*
X171800000Y-67769267D03*
%TD*%
D22*
%TO.C,C20*%
X178200000Y-68044254D03*
X178200000Y-69594254D03*
%TD*%
%TO.C,C17*%
X205899924Y-66756868D03*
X205899924Y-68306868D03*
%TD*%
D13*
%TO.C,R8*%
X205400000Y-60169254D03*
X203750000Y-60169254D03*
%TD*%
D11*
%TO.C,M3.3V2*%
X181800000Y-65719254D03*
X181800000Y-64069254D03*
%TD*%
%TO.C,M2.4V2*%
X180100000Y-65694254D03*
X180100000Y-64044254D03*
%TD*%
D20*
%TO.C,C13*%
X182000000Y-51369254D03*
X180450000Y-51369254D03*
%TD*%
D12*
%TO.C,R18*%
X183400000Y-57806754D03*
X183400000Y-55981754D03*
%TD*%
D25*
%TO.C,C18*%
X177600000Y-62406754D03*
X177600000Y-60856754D03*
%TD*%
D16*
%TO.C,R17*%
X180375000Y-49769254D03*
X182025000Y-49769254D03*
%TD*%
D17*
%TO.C,C16*%
X203800000Y-58569254D03*
X205350000Y-58569254D03*
%TD*%
D18*
%TO.C,U14*%
X211750000Y-68169242D03*
X211750000Y-63169242D03*
X211750000Y-58169242D03*
%TD*%
D15*
%TO.C,D3*%
X176437500Y-49769254D03*
X178012500Y-49769254D03*
%TD*%
D10*
%TO.C,C15*%
X196650000Y-55769254D03*
X194750000Y-55769254D03*
%TD*%
D14*
%TO.C,U11*%
X202200000Y-68706868D03*
X203149962Y-68706868D03*
X204099924Y-68706868D03*
X204099924Y-66506716D03*
X202200000Y-66506716D03*
%TD*%
D12*
%TO.C,R15*%
X181400000Y-62431754D03*
X181400000Y-60606754D03*
%TD*%
D11*
%TO.C,R20*%
X178000000Y-65719254D03*
X178000000Y-64069254D03*
%TD*%
D12*
%TO.C,R14*%
X179400000Y-62431754D03*
X179400000Y-60606754D03*
%TD*%
D13*
%TO.C,R12*%
X202200000Y-60169254D03*
X200550000Y-60169254D03*
%TD*%
D12*
%TO.C,R16*%
X183400000Y-62431754D03*
X183400000Y-60606754D03*
%TD*%
D11*
%TO.C,R13*%
X200299924Y-68356868D03*
X200299924Y-66706868D03*
%TD*%
D13*
%TO.C,R19*%
X174325000Y-52469254D03*
X172675000Y-52469254D03*
%TD*%
D14*
%TO.C,U6*%
X179913173Y-69989320D03*
X180862881Y-69989320D03*
X181812843Y-69989320D03*
X181813097Y-67789168D03*
X179912919Y-67789168D03*
%TD*%
%TO.C,U34*%
X179913173Y-137220066D03*
X180862881Y-137220066D03*
X181812843Y-137220066D03*
X181813097Y-135019914D03*
X179912919Y-135019914D03*
%TD*%
D13*
%TO.C,R59*%
X174325000Y-119700000D03*
X172675000Y-119700000D03*
%TD*%
D11*
%TO.C,R53*%
X200299924Y-135587614D03*
X200299924Y-133937614D03*
%TD*%
D12*
%TO.C,R56*%
X183400000Y-129662500D03*
X183400000Y-127837500D03*
%TD*%
D13*
%TO.C,R52*%
X202200000Y-127400000D03*
X200550000Y-127400000D03*
%TD*%
D12*
%TO.C,R54*%
X179400000Y-129662500D03*
X179400000Y-127837500D03*
%TD*%
D11*
%TO.C,R60*%
X178000000Y-132950000D03*
X178000000Y-131300000D03*
%TD*%
D12*
%TO.C,R55*%
X181400000Y-129662500D03*
X181400000Y-127837500D03*
%TD*%
D14*
%TO.C,U39*%
X202200000Y-135937614D03*
X203149962Y-135937614D03*
X204099924Y-135937614D03*
X204099924Y-133737462D03*
X202200000Y-133737462D03*
%TD*%
D10*
%TO.C,C55*%
X196650000Y-123000000D03*
X194750000Y-123000000D03*
%TD*%
D15*
%TO.C,D7*%
X176437500Y-117000000D03*
X178012500Y-117000000D03*
%TD*%
D18*
%TO.C,U42*%
X211750000Y-135399988D03*
X211750000Y-130399988D03*
X211750000Y-125399988D03*
%TD*%
D17*
%TO.C,C56*%
X203800000Y-125800000D03*
X205350000Y-125800000D03*
%TD*%
D16*
%TO.C,R57*%
X180375000Y-117000000D03*
X182025000Y-117000000D03*
%TD*%
D25*
%TO.C,C58*%
X177600000Y-129637500D03*
X177600000Y-128087500D03*
%TD*%
D12*
%TO.C,R58*%
X183400000Y-125037500D03*
X183400000Y-123212500D03*
%TD*%
D20*
%TO.C,C53*%
X182000000Y-118600000D03*
X180450000Y-118600000D03*
%TD*%
D11*
%TO.C,M2.4V6*%
X180100000Y-132925000D03*
X180100000Y-131275000D03*
%TD*%
%TO.C,M3.3V6*%
X181800000Y-132950000D03*
X181800000Y-131300000D03*
%TD*%
D13*
%TO.C,R48*%
X205400000Y-127400000D03*
X203750000Y-127400000D03*
%TD*%
D22*
%TO.C,C57*%
X205899924Y-133987614D03*
X205899924Y-135537614D03*
%TD*%
%TO.C,C60*%
X178200000Y-135275000D03*
X178200000Y-136825000D03*
%TD*%
D18*
%TO.C,U41*%
X171800000Y-125000013D03*
X171800000Y-130000013D03*
X171800000Y-135000013D03*
%TD*%
D11*
%TO.C,M5V6*%
X183400000Y-132950000D03*
X183400000Y-131300000D03*
%TD*%
D22*
%TO.C,C52*%
X183400000Y-135275000D03*
X183400000Y-136825000D03*
%TD*%
D20*
%TO.C,C51*%
X201675000Y-123000000D03*
X200125000Y-123000000D03*
%TD*%
D24*
%TO.C,L6*%
X180525102Y-121800000D03*
X181924898Y-121800000D03*
%TD*%
D17*
%TO.C,C59*%
X202299924Y-130962614D03*
X203849924Y-130962614D03*
%TD*%
D23*
%TO.C,U40*%
X176100076Y-121200000D03*
X178000000Y-121200000D03*
X177050038Y-118900026D03*
%TD*%
D21*
%TO.C,U30*%
X197800000Y-134010008D03*
X197800000Y-131470003D03*
X197800000Y-128929997D03*
X197800000Y-126389992D03*
X185800000Y-126389992D03*
X185800000Y-128929997D03*
X185800000Y-131470003D03*
X185800000Y-134000000D03*
%TD*%
D20*
%TO.C,C54*%
X182000000Y-120200000D03*
X180450000Y-120200000D03*
%TD*%
D19*
%TO.C,U38*%
X186849987Y-116800000D03*
X189389992Y-116800000D03*
X194470003Y-116800000D03*
X199550013Y-116800000D03*
%TD*%
D22*
%TO.C,C47*%
X154699924Y-135537614D03*
X154699924Y-133987614D03*
%TD*%
D11*
%TO.C,M5V5*%
X132200000Y-131300000D03*
X132200000Y-132950000D03*
%TD*%
D25*
%TO.C,C48*%
X126400000Y-128087500D03*
X126400000Y-129637500D03*
%TD*%
D24*
%TO.C,L5*%
X130724898Y-121800000D03*
X129325102Y-121800000D03*
%TD*%
D23*
%TO.C,U35*%
X125850038Y-118900026D03*
X126800000Y-121200000D03*
X124900076Y-121200000D03*
%TD*%
D11*
%TO.C,M2.4V5*%
X128900000Y-131275000D03*
X128900000Y-132925000D03*
%TD*%
D12*
%TO.C,R49*%
X132200000Y-123212500D03*
X132200000Y-125037500D03*
%TD*%
D22*
%TO.C,C50*%
X127000000Y-136825000D03*
X127000000Y-135275000D03*
%TD*%
D13*
%TO.C,R41*%
X152550000Y-127400000D03*
X154200000Y-127400000D03*
%TD*%
D20*
%TO.C,C43*%
X129250000Y-118600000D03*
X130800000Y-118600000D03*
%TD*%
D11*
%TO.C,M3.3V5*%
X130600000Y-131300000D03*
X130600000Y-132950000D03*
%TD*%
D18*
%TO.C,U36*%
X120600000Y-135000013D03*
X120600000Y-130000013D03*
X120600000Y-125000013D03*
%TD*%
D22*
%TO.C,C42*%
X132200000Y-136825000D03*
X132200000Y-135275000D03*
%TD*%
D20*
%TO.C,C41*%
X148925000Y-123000000D03*
X150475000Y-123000000D03*
%TD*%
D17*
%TO.C,C49*%
X152649924Y-130962614D03*
X151099924Y-130962614D03*
%TD*%
D21*
%TO.C,U29*%
X134600000Y-134000000D03*
X134600000Y-131470003D03*
X134600000Y-128929997D03*
X134600000Y-126389992D03*
X146600000Y-126389992D03*
X146600000Y-128929997D03*
X146600000Y-131470003D03*
X146600000Y-134010008D03*
%TD*%
D20*
%TO.C,C44*%
X129250000Y-120200000D03*
X130800000Y-120200000D03*
%TD*%
D19*
%TO.C,U32*%
X148350013Y-116800000D03*
X143270003Y-116800000D03*
X138189992Y-116800000D03*
X135649987Y-116800000D03*
%TD*%
D13*
%TO.C,R50*%
X121475000Y-119700000D03*
X123125000Y-119700000D03*
%TD*%
D11*
%TO.C,R43*%
X149099924Y-133937614D03*
X149099924Y-135587614D03*
%TD*%
D12*
%TO.C,R46*%
X132200000Y-127837500D03*
X132200000Y-129662500D03*
%TD*%
D14*
%TO.C,U31*%
X128712919Y-135019914D03*
X130613097Y-135019914D03*
X130612843Y-137220066D03*
X129662881Y-137220066D03*
X128713173Y-137220066D03*
%TD*%
D12*
%TO.C,R45*%
X130200000Y-127837500D03*
X130200000Y-129662500D03*
%TD*%
D18*
%TO.C,U37*%
X160550000Y-125399988D03*
X160550000Y-130399988D03*
X160550000Y-135399988D03*
%TD*%
D17*
%TO.C,C46*%
X154150000Y-125800000D03*
X152600000Y-125800000D03*
%TD*%
D16*
%TO.C,R47*%
X130825000Y-117000000D03*
X129175000Y-117000000D03*
%TD*%
D15*
%TO.C,D6*%
X126812500Y-117000000D03*
X125237500Y-117000000D03*
%TD*%
D14*
%TO.C,U33*%
X151000000Y-133737462D03*
X152899924Y-133737462D03*
X152899924Y-135937614D03*
X151949962Y-135937614D03*
X151000000Y-135937614D03*
%TD*%
D13*
%TO.C,R42*%
X149350000Y-127400000D03*
X151000000Y-127400000D03*
%TD*%
D12*
%TO.C,R44*%
X128200000Y-127837500D03*
X128200000Y-129662500D03*
%TD*%
D11*
%TO.C,R51*%
X126800000Y-131300000D03*
X126800000Y-132950000D03*
%TD*%
D10*
%TO.C,C45*%
X143550000Y-123000000D03*
X145450000Y-123000000D03*
%TD*%
M02*
