M48
; DRILL file KiCad 10.99.0-1181-g2d5a581dc2 date 2026-07-18T15:06:06
; FORMAT={-:-/ absolute / metric / decimal}
; #@! TF.CreationDate,2026-07-18T15:06:06+07:00
; #@! TF.GenerationSoftware,Kicad,Pcbnew,10.99.0-1181-g2d5a581dc2
; #@! TF.FileFunction,Plated,1,2,PTH
FMAT,2
METRIC
; #@! TA.AperFunction,Plated,PTH,ViaDrill
T1C0.300
; #@! TA.AperFunction,Plated,PTH,ComponentDrill
T2C1.200
; #@! TA.AperFunction,Plated,PTH,ComponentDrill
T3C1.400
%
G90
G05
T1
X122.4Y-49.069
X122.4Y-82.9
X122.4Y-116.3
X123.7Y-67.069
X123.7Y-100.9
X123.7Y-134.3
X124.0Y-50.869
X124.0Y-84.7
X124.0Y-118.1
X124.8Y-73.369
X124.8Y-107.2
X124.8Y-140.6
X125.4Y-77.769
X125.4Y-111.6
X125.4Y-145.0
X127.7Y-57.319
X127.7Y-91.15
X127.7Y-124.55
X127.9Y-51.369
X127.9Y-85.2
X127.9Y-118.6
X130.9Y-71.394
X130.9Y-105.225
X130.9Y-138.625
X134.6Y-57.269
X134.6Y-91.1
X134.6Y-124.5
X143.4Y-66.369
X143.4Y-100.2
X143.4Y-133.6
X145.8Y-51.169
X145.8Y-85.0
X145.8Y-118.4
X149.7Y-57.569
X149.7Y-91.4
X149.7Y-124.8
X151.6Y-51.569
X151.6Y-85.4
X151.6Y-118.8
X153.0Y-69.969
X153.0Y-103.8
X153.0Y-137.2
X153.3Y-64.869
X153.3Y-98.7
X153.3Y-132.1
X153.7Y-76.469
X153.7Y-110.3
X153.7Y-143.7
X155.5Y-53.369
X155.5Y-87.2
X155.5Y-120.6
X159.4Y-76.069
X159.4Y-109.9
X159.4Y-143.3
X173.6Y-49.069
X173.6Y-82.9
X173.6Y-116.3
X174.9Y-67.069
X174.9Y-100.9
X174.9Y-134.3
X175.2Y-50.869
X175.2Y-84.7
X175.2Y-118.1
X176.0Y-73.369
X176.0Y-107.2
X176.0Y-140.6
X176.6Y-77.769
X176.6Y-111.6
X176.6Y-145.0
X178.9Y-57.319
X178.9Y-91.15
X178.9Y-124.55
X179.1Y-51.369
X179.1Y-85.2
X179.1Y-118.6
X182.1Y-71.394
X182.1Y-105.225
X182.1Y-138.625
X185.8Y-57.269
X185.8Y-91.1
X185.8Y-124.5
X194.6Y-66.369
X194.6Y-100.2
X194.6Y-133.6
X197.0Y-51.169
X197.0Y-85.0
X197.0Y-118.4
X200.9Y-57.569
X200.9Y-91.4
X200.9Y-124.8
X202.8Y-51.569
X202.8Y-85.4
X202.8Y-118.8
X204.2Y-69.969
X204.2Y-103.8
X204.2Y-137.2
X204.5Y-64.869
X204.5Y-98.7
X204.5Y-132.1
X204.9Y-76.469
X204.9Y-110.3
X204.9Y-143.7
X206.7Y-53.369
X206.7Y-87.2
X206.7Y-120.6
X210.6Y-76.069
X210.6Y-109.9
X210.6Y-143.3
T2
X135.65Y-49.569
X135.65Y-83.4
X135.65Y-116.8
X138.19Y-49.569
X138.19Y-83.4
X138.19Y-116.8
X143.27Y-49.569
X143.27Y-83.4
X143.27Y-116.8
X148.35Y-49.569
X148.35Y-83.4
X148.35Y-116.8
X186.85Y-49.569
X186.85Y-83.4
X186.85Y-116.8
X189.39Y-49.569
X189.39Y-83.4
X189.39Y-116.8
X194.47Y-49.569
X194.47Y-83.4
X194.47Y-116.8
X199.55Y-49.569
X199.55Y-83.4
X199.55Y-116.8
T3
X120.6Y-57.769
X120.6Y-62.769
X120.6Y-67.769
X120.6Y-91.6
X120.6Y-96.6
X120.6Y-101.6
X120.6Y-125.0
X120.6Y-130.0
X120.6Y-135.0
X160.55Y-58.169
X160.55Y-63.169
X160.55Y-68.169
X160.55Y-92.0
X160.55Y-97.0
X160.55Y-102.0
X160.55Y-125.4
X160.55Y-130.4
X160.55Y-135.4
X171.8Y-57.769
X171.8Y-62.769
X171.8Y-67.769
X171.8Y-91.6
X171.8Y-96.6
X171.8Y-101.6
X171.8Y-125.0
X171.8Y-130.0
X171.8Y-135.0
X211.75Y-58.169
X211.75Y-63.169
X211.75Y-68.169
X211.75Y-92.0
X211.75Y-97.0
X211.75Y-102.0
X211.75Y-125.4
X211.75Y-130.4
X211.75Y-135.4
M30
