%TF.GenerationSoftware,KiCad,Pcbnew,10.99.0-1181-g2d5a581dc2*%
%TF.CreationDate,2026-07-18T15:06:10+07:00*%
%TF.ProjectId,AnalogIsolatorproduction,416e616c-6f67-4497-936f-6c61746f7270,rev?*%
%TF.SameCoordinates,Original*%
%TF.FileFunction,Soldermask,Bot*%
%TF.FilePolarity,Negative*%
%FSLAX46Y46*%
G04 Gerber Fmt 4.6, Leading zero omitted, Abs format (unit mm)*
G04 Created by KiCad (PCBNEW 10.99.0-1181-g2d5a581dc2) date 2026-07-18 15:06:10*
%MOMM*%
%LPD*%
G01*
G04 APERTURE LIST*
%ADD10C,2.200000*%
%ADD11C,2.000000*%
G04 APERTURE END LIST*
D10*
%TO.C,U23*%
X160550000Y-91999988D03*
X160550000Y-96999988D03*
X160550000Y-101999988D03*
%TD*%
D11*
%TO.C,U18*%
X148350013Y-83400000D03*
X143270003Y-83400000D03*
X138189992Y-83400000D03*
X135649987Y-83400000D03*
%TD*%
D10*
%TO.C,U22*%
X120600000Y-101600013D03*
X120600000Y-96600013D03*
X120600000Y-91600013D03*
%TD*%
D11*
%TO.C,U24*%
X186849987Y-83400000D03*
X189389992Y-83400000D03*
X194470003Y-83400000D03*
X199550013Y-83400000D03*
%TD*%
D10*
%TO.C,U27*%
X171800000Y-91600013D03*
X171800000Y-96600013D03*
X171800000Y-101600013D03*
%TD*%
%TO.C,U28*%
X211750000Y-101999988D03*
X211750000Y-96999988D03*
X211750000Y-91999988D03*
%TD*%
%TO.C,U9*%
X160550000Y-58169242D03*
X160550000Y-63169242D03*
X160550000Y-68169242D03*
%TD*%
D11*
%TO.C,U4*%
X148350013Y-49569254D03*
X143270003Y-49569254D03*
X138189992Y-49569254D03*
X135649987Y-49569254D03*
%TD*%
D10*
%TO.C,U8*%
X120600000Y-67769267D03*
X120600000Y-62769267D03*
X120600000Y-57769267D03*
%TD*%
D11*
%TO.C,U10*%
X186849987Y-49569254D03*
X189389992Y-49569254D03*
X194470003Y-49569254D03*
X199550013Y-49569254D03*
%TD*%
D10*
%TO.C,U13*%
X171800000Y-57769267D03*
X171800000Y-62769267D03*
X171800000Y-67769267D03*
%TD*%
%TO.C,U14*%
X211750000Y-68169242D03*
X211750000Y-63169242D03*
X211750000Y-58169242D03*
%TD*%
%TO.C,U42*%
X211750000Y-135399988D03*
X211750000Y-130399988D03*
X211750000Y-125399988D03*
%TD*%
%TO.C,U41*%
X171800000Y-125000013D03*
X171800000Y-130000013D03*
X171800000Y-135000013D03*
%TD*%
D11*
%TO.C,U38*%
X186849987Y-116800000D03*
X189389992Y-116800000D03*
X194470003Y-116800000D03*
X199550013Y-116800000D03*
%TD*%
D10*
%TO.C,U36*%
X120600000Y-135000013D03*
X120600000Y-130000013D03*
X120600000Y-125000013D03*
%TD*%
D11*
%TO.C,U32*%
X148350013Y-116800000D03*
X143270003Y-116800000D03*
X138189992Y-116800000D03*
X135649987Y-116800000D03*
%TD*%
D10*
%TO.C,U37*%
X160550000Y-125399988D03*
X160550000Y-130399988D03*
X160550000Y-135399988D03*
%TD*%
M02*
