<?xml version="1.0" encoding="utf-8" standalone="no"?>
<!DOCTYPE svg PUBLIC "-//W3C//DTD SVG 1.1//EN"
  "http://www.w3.org/Graphics/SVG/1.1/DTD/svg11.dtd">
<svg xmlns:xlink="http://www.w3.org/1999/xlink" width="856.8pt" height="568.8pt" viewBox="0 0 856.8 568.8" xmlns="http://www.w3.org/2000/svg" version="1.1">
 <metadata>
  <rdf:RDF xmlns:dc="http://purl.org/dc/elements/1.1/" xmlns:cc="http://creativecommons.org/ns#" xmlns:rdf="http://www.w3.org/1999/02/22-rdf-syntax-ns#">
   <cc:Work>
    <dc:type rdf:resource="http://purl.org/dc/dcmitype/StillImage"/>
    <dc:date>2026-07-15T14:52:40.510231</dc:date>
    <dc:format>image/svg+xml</dc:format>
    <dc:creator>
     <cc:Agent>
      <dc:title>Matplotlib v3.10.8, https://matplotlib.org/</dc:title>
     </cc:Agent>
    </dc:creator>
   </cc:Work>
  </rdf:RDF>
 </metadata>
 <defs>
  <style type="text/css">*{stroke-linejoin: round; stroke-linecap: butt}</style>
 </defs>
 <g id="figure_1">
  <g id="patch_1">
   <path d="M 0 568.8 
L 856.8 568.8 
L 856.8 0 
L 0 0 
z
" style="fill: #ffffff"/>
  </g>
  <g id="axes_1">
   <g id="patch_2">
    <path d="M 63.36 197.775 
L 203.76 197.775 
L 203.76 107.685 
L 63.36 107.685 
L 63.36 197.775 
z
" clip-path="url(#p1034adc38c)" style="fill: none; stroke: #000000; stroke-width: 1.4; stroke-linejoin: miter"/>
   </g>
   <g id="patch_3">
    <path d="M 653.04 197.775 
L 793.44 197.775 
L 793.44 107.685 
L 653.04 107.685 
L 653.04 197.775 
z
" clip-path="url(#p1034adc38c)" style="fill: none; stroke: #000000; stroke-width: 1.4; stroke-linejoin: miter"/>
   </g>
   <g id="patch_4">
    <path d="M 319.59 225.495 
L 537.21 225.495 
L 537.21 86.895 
L 319.59 86.895 
L 319.59 225.495 
z
" clip-path="url(#p1034adc38c)" style="fill: none; stroke: #000000; stroke-width: 1.4; stroke-linejoin: miter"/>
   </g>
   <g id="patch_5">
    <path d="M 63.36 468.045 
L 793.44 468.045 
L 793.44 312.12 
L 63.36 312.12 
L 63.36 468.045 
z
" clip-path="url(#p1034adc38c)" style="fill: none; stroke: #000000; stroke-width: 1.2; stroke-linejoin: miter"/>
   </g>
   <g id="text_1">
    <!-- 05 - CONNECTOR WIRING - REV B2 -->
    <g transform="translate(303.293281 35.042187) scale(0.13 -0.13)">
     <defs>
      <path id="DejaVuSans-Bold-30" d="M 2944 2338 
Q 2944 3213 2780 3570 
Q 2616 3928 2228 3928 
Q 1841 3928 1675 3570 
Q 1509 3213 1509 2338 
Q 1509 1453 1675 1090 
Q 1841 728 2228 728 
Q 2613 728 2778 1090 
Q 2944 1453 2944 2338 
z
M 4147 2328 
Q 4147 1169 3647 539 
Q 3147 -91 2228 -91 
Q 1306 -91 806 539 
Q 306 1169 306 2328 
Q 306 3491 806 4120 
Q 1306 4750 2228 4750 
Q 3147 4750 3647 4120 
Q 4147 3491 4147 2328 
z
" transform="scale(0.015625)"/>
      <path id="DejaVuSans-Bold-35" d="M 678 4666 
L 3669 4666 
L 3669 3781 
L 1638 3781 
L 1638 3059 
Q 1775 3097 1914 3117 
Q 2053 3138 2203 3138 
Q 3056 3138 3531 2711 
Q 4006 2284 4006 1522 
Q 4006 766 3489 337 
Q 2972 -91 2053 -91 
Q 1656 -91 1267 -14 
Q 878 63 494 219 
L 494 1166 
Q 875 947 1217 837 
Q 1559 728 1863 728 
Q 2300 728 2551 942 
Q 2803 1156 2803 1522 
Q 2803 1891 2551 2103 
Q 2300 2316 1863 2316 
Q 1603 2316 1309 2248 
Q 1016 2181 678 2041 
L 678 4666 
z
" transform="scale(0.015625)"/>
      <path id="DejaVuSans-Bold-20" transform="scale(0.015625)"/>
      <path id="DejaVuSans-Bold-2d" d="M 347 2297 
L 2309 2297 
L 2309 1388 
L 347 1388 
L 347 2297 
z
" transform="scale(0.015625)"/>
      <path id="DejaVuSans-Bold-43" d="M 4288 256 
Q 3956 84 3597 -3 
Q 3238 -91 2847 -91 
Q 1681 -91 1000 561 
Q 319 1213 319 2328 
Q 319 3447 1000 4098 
Q 1681 4750 2847 4750 
Q 3238 4750 3597 4662 
Q 3956 4575 4288 4403 
L 4288 3438 
Q 3953 3666 3628 3772 
Q 3303 3878 2944 3878 
Q 2300 3878 1931 3465 
Q 1563 3053 1563 2328 
Q 1563 1606 1931 1193 
Q 2300 781 2944 781 
Q 3303 781 3628 887 
Q 3953 994 4288 1222 
L 4288 256 
z
" transform="scale(0.015625)"/>
      <path id="DejaVuSans-Bold-4f" d="M 2719 3878 
Q 2169 3878 1866 3472 
Q 1563 3066 1563 2328 
Q 1563 1594 1866 1187 
Q 2169 781 2719 781 
Q 3272 781 3575 1187 
Q 3878 1594 3878 2328 
Q 3878 3066 3575 3472 
Q 3272 3878 2719 3878 
z
M 2719 4750 
Q 3844 4750 4481 4106 
Q 5119 3463 5119 2328 
Q 5119 1197 4481 553 
Q 3844 -91 2719 -91 
Q 1597 -91 958 553 
Q 319 1197 319 2328 
Q 319 3463 958 4106 
Q 1597 4750 2719 4750 
z
" transform="scale(0.015625)"/>
      <path id="DejaVuSans-Bold-4e" d="M 588 4666 
L 1931 4666 
L 3628 1466 
L 3628 4666 
L 4769 4666 
L 4769 0 
L 3425 0 
L 1728 3200 
L 1728 0 
L 588 0 
L 588 4666 
z
" transform="scale(0.015625)"/>
      <path id="DejaVuSans-Bold-45" d="M 588 4666 
L 3834 4666 
L 3834 3756 
L 1791 3756 
L 1791 2888 
L 3713 2888 
L 3713 1978 
L 1791 1978 
L 1791 909 
L 3903 909 
L 3903 0 
L 588 0 
L 588 4666 
z
" transform="scale(0.015625)"/>
      <path id="DejaVuSans-Bold-54" d="M 31 4666 
L 4331 4666 
L 4331 3756 
L 2784 3756 
L 2784 0 
L 1581 0 
L 1581 3756 
L 31 3756 
L 31 4666 
z
" transform="scale(0.015625)"/>
      <path id="DejaVuSans-Bold-52" d="M 2297 2597 
Q 2675 2597 2839 2737 
Q 3003 2878 3003 3200 
Q 3003 3519 2839 3656 
Q 2675 3794 2297 3794 
L 1791 3794 
L 1791 2597 
L 2297 2597 
z
M 1791 1766 
L 1791 0 
L 588 0 
L 588 4666 
L 2425 4666 
Q 3347 4666 3776 4356 
Q 4206 4047 4206 3378 
Q 4206 2916 3982 2619 
Q 3759 2322 3309 2181 
Q 3556 2125 3751 1926 
Q 3947 1728 4147 1325 
L 4800 0 
L 3519 0 
L 2950 1159 
Q 2778 1509 2601 1637 
Q 2425 1766 2131 1766 
L 1791 1766 
z
" transform="scale(0.015625)"/>
      <path id="DejaVuSans-Bold-57" d="M 191 4666 
L 1344 4666 
L 2150 1275 
L 2950 4666 
L 4109 4666 
L 4909 1275 
L 5716 4666 
L 6859 4666 
L 5759 0 
L 4372 0 
L 3525 3547 
L 2688 0 
L 1300 0 
L 191 4666 
z
" transform="scale(0.015625)"/>
      <path id="DejaVuSans-Bold-49" d="M 588 4666 
L 1791 4666 
L 1791 0 
L 588 0 
L 588 4666 
z
" transform="scale(0.015625)"/>
      <path id="DejaVuSans-Bold-47" d="M 4781 347 
Q 4331 128 3847 18 
Q 3363 -91 2847 -91 
Q 1681 -91 1000 561 
Q 319 1213 319 2328 
Q 319 3456 1012 4103 
Q 1706 4750 2913 4750 
Q 3378 4750 3804 4662 
Q 4231 4575 4609 4403 
L 4609 3438 
Q 4219 3659 3833 3768 
Q 3447 3878 3059 3878 
Q 2341 3878 1952 3476 
Q 1563 3075 1563 2328 
Q 1563 1588 1938 1184 
Q 2313 781 3003 781 
Q 3191 781 3352 804 
Q 3513 828 3641 878 
L 3641 1784 
L 2906 1784 
L 2906 2591 
L 4781 2591 
L 4781 347 
z
" transform="scale(0.015625)"/>
      <path id="DejaVuSans-Bold-56" d="M 31 4666 
L 1241 4666 
L 2478 1222 
L 3713 4666 
L 4922 4666 
L 3194 0 
L 1759 0 
L 31 4666 
z
" transform="scale(0.015625)"/>
      <path id="DejaVuSans-Bold-42" d="M 2456 2859 
Q 2741 2859 2887 2984 
Q 3034 3109 3034 3353 
Q 3034 3594 2887 3720 
Q 2741 3847 2456 3847 
L 1791 3847 
L 1791 2859 
L 2456 2859 
z
M 2497 819 
Q 2859 819 3042 972 
Q 3225 1125 3225 1434 
Q 3225 1738 3044 1889 
Q 2863 2041 2497 2041 
L 1791 2041 
L 1791 819 
L 2497 819 
z
M 3616 2497 
Q 4003 2384 4215 2081 
Q 4428 1778 4428 1338 
Q 4428 663 3972 331 
Q 3516 0 2584 0 
L 588 0 
L 588 4666 
L 2394 4666 
Q 3366 4666 3802 4372 
Q 4238 4078 4238 3431 
Q 4238 3091 4078 2852 
Q 3919 2613 3616 2497 
z
" transform="scale(0.015625)"/>
      <path id="DejaVuSans-Bold-32" d="M 1844 884 
L 3897 884 
L 3897 0 
L 506 0 
L 506 884 
L 2209 2388 
Q 2438 2594 2547 2791 
Q 2656 2988 2656 3200 
Q 2656 3528 2436 3728 
Q 2216 3928 1850 3928 
Q 1569 3928 1234 3808 
Q 900 3688 519 3450 
L 519 4475 
Q 925 4609 1322 4679 
Q 1719 4750 2100 4750 
Q 2938 4750 3402 4381 
Q 3866 4013 3866 3353 
Q 3866 2972 3669 2642 
Q 3472 2313 2841 1759 
L 1844 884 
z
" transform="scale(0.015625)"/>
     </defs>
     <use xlink:href="#DejaVuSans-Bold-30"/>
     <use xlink:href="#DejaVuSans-Bold-35" transform="translate(69.580078 0)"/>
     <use xlink:href="#DejaVuSans-Bold-20" transform="translate(139.160156 0)"/>
     <use xlink:href="#DejaVuSans-Bold-2d" transform="translate(173.974609 0)"/>
     <use xlink:href="#DejaVuSans-Bold-20" transform="translate(215.478516 0)"/>
     <use xlink:href="#DejaVuSans-Bold-43" transform="translate(250.292969 0)"/>
     <use xlink:href="#DejaVuSans-Bold-4f" transform="translate(323.681641 0)"/>
     <use xlink:href="#DejaVuSans-Bold-4e" transform="translate(408.691406 0)"/>
     <use xlink:href="#DejaVuSans-Bold-4e" transform="translate(492.382812 0)"/>
     <use xlink:href="#DejaVuSans-Bold-45" transform="translate(576.074219 0)"/>
     <use xlink:href="#DejaVuSans-Bold-43" transform="translate(644.384766 0)"/>
     <use xlink:href="#DejaVuSans-Bold-54" transform="translate(717.773438 0)"/>
     <use xlink:href="#DejaVuSans-Bold-4f" transform="translate(785.986328 0)"/>
     <use xlink:href="#DejaVuSans-Bold-52" transform="translate(870.996094 0)"/>
     <use xlink:href="#DejaVuSans-Bold-20" transform="translate(947.998047 0)"/>
     <use xlink:href="#DejaVuSans-Bold-57" transform="translate(982.8125 0)"/>
     <use xlink:href="#DejaVuSans-Bold-49" transform="translate(1093.115234 0)"/>
     <use xlink:href="#DejaVuSans-Bold-52" transform="translate(1130.322266 0)"/>
     <use xlink:href="#DejaVuSans-Bold-49" transform="translate(1207.324219 0)"/>
     <use xlink:href="#DejaVuSans-Bold-4e" transform="translate(1244.53125 0)"/>
     <use xlink:href="#DejaVuSans-Bold-47" transform="translate(1328.222656 0)"/>
     <use xlink:href="#DejaVuSans-Bold-20" transform="translate(1410.302734 0)"/>
     <use xlink:href="#DejaVuSans-Bold-2d" transform="translate(1445.117188 0)"/>
     <use xlink:href="#DejaVuSans-Bold-20" transform="translate(1486.621094 0)"/>
     <use xlink:href="#DejaVuSans-Bold-52" transform="translate(1521.435547 0)"/>
     <use xlink:href="#DejaVuSans-Bold-45" transform="translate(1598.4375 0)"/>
     <use xlink:href="#DejaVuSans-Bold-56" transform="translate(1666.748047 0)"/>
     <use xlink:href="#DejaVuSans-Bold-20" transform="translate(1744.140625 0)"/>
     <use xlink:href="#DejaVuSans-Bold-42" transform="translate(1778.955078 0)"/>
     <use xlink:href="#DejaVuSans-Bold-32" transform="translate(1855.175781 0)"/>
    </g>
   </g>
   <g id="text_2">
    <!-- J1 HOST -->
    <g transform="translate(115.989281 140.467912) scale(0.078 -0.078)">
     <defs>
      <path id="DejaVuSans-Bold-4a" d="M 588 4666 
L 1791 4666 
L 1791 453 
Q 1791 -419 1317 -850 
Q 844 -1281 -116 -1281 
L -359 -1281 
L -359 -372 
L -172 -372 
Q 203 -372 395 -162 
Q 588 47 588 453 
L 588 4666 
z
" transform="scale(0.015625)"/>
      <path id="DejaVuSans-Bold-31" d="M 750 831 
L 1813 831 
L 1813 3847 
L 722 3622 
L 722 4441 
L 1806 4666 
L 2950 4666 
L 2950 831 
L 4013 831 
L 4013 0 
L 750 0 
L 750 831 
z
" transform="scale(0.015625)"/>
      <path id="DejaVuSans-Bold-48" d="M 588 4666 
L 1791 4666 
L 1791 2888 
L 3566 2888 
L 3566 4666 
L 4769 4666 
L 4769 0 
L 3566 0 
L 3566 1978 
L 1791 1978 
L 1791 0 
L 588 0 
L 588 4666 
z
" transform="scale(0.015625)"/>
      <path id="DejaVuSans-Bold-53" d="M 3834 4519 
L 3834 3531 
Q 3450 3703 3084 3790 
Q 2719 3878 2394 3878 
Q 1963 3878 1756 3759 
Q 1550 3641 1550 3391 
Q 1550 3203 1689 3098 
Q 1828 2994 2194 2919 
L 2706 2816 
Q 3484 2659 3812 2340 
Q 4141 2022 4141 1434 
Q 4141 663 3683 286 
Q 3225 -91 2284 -91 
Q 1841 -91 1394 -6 
Q 947 78 500 244 
L 500 1259 
Q 947 1022 1364 901 
Q 1781 781 2169 781 
Q 2563 781 2772 912 
Q 2981 1044 2981 1288 
Q 2981 1506 2839 1625 
Q 2697 1744 2272 1838 
L 1806 1941 
Q 1106 2091 782 2419 
Q 459 2747 459 3303 
Q 459 4000 909 4375 
Q 1359 4750 2203 4750 
Q 2588 4750 2994 4692 
Q 3400 4634 3834 4519 
z
" transform="scale(0.015625)"/>
     </defs>
     <use xlink:href="#DejaVuSans-Bold-4a"/>
     <use xlink:href="#DejaVuSans-Bold-31" transform="translate(37.207031 0)"/>
     <use xlink:href="#DejaVuSans-Bold-20" transform="translate(106.787109 0)"/>
     <use xlink:href="#DejaVuSans-Bold-48" transform="translate(141.601562 0)"/>
     <use xlink:href="#DejaVuSans-Bold-4f" transform="translate(225.292969 0)"/>
     <use xlink:href="#DejaVuSans-Bold-53" transform="translate(310.302734 0)"/>
     <use xlink:href="#DejaVuSans-Bold-54" transform="translate(382.324219 0)"/>
    </g>
   </g>
   <g id="text_3">
    <!-- 1 5V_IN -->
    <g transform="translate(118.67175 165.642412) scale(0.078 -0.078)">
     <defs>
      <path id="DejaVuSans-31" d="M 794 531 
L 1825 531 
L 1825 4091 
L 703 3866 
L 703 4441 
L 1819 4666 
L 2450 4666 
L 2450 531 
L 3481 531 
L 3481 0 
L 794 0 
L 794 531 
z
" transform="scale(0.015625)"/>
      <path id="DejaVuSans-20" transform="scale(0.015625)"/>
      <path id="DejaVuSans-35" d="M 691 4666 
L 3169 4666 
L 3169 4134 
L 1269 4134 
L 1269 2991 
Q 1406 3038 1543 3061 
Q 1681 3084 1819 3084 
Q 2600 3084 3056 2656 
Q 3513 2228 3513 1497 
Q 3513 744 3044 326 
Q 2575 -91 1722 -91 
Q 1428 -91 1123 -41 
Q 819 9 494 109 
L 494 744 
Q 775 591 1075 516 
Q 1375 441 1709 441 
Q 2250 441 2565 725 
Q 2881 1009 2881 1497 
Q 2881 1984 2565 2268 
Q 2250 2553 1709 2553 
Q 1456 2553 1204 2497 
Q 953 2441 691 2322 
L 691 4666 
z
" transform="scale(0.015625)"/>
      <path id="DejaVuSans-56" d="M 1831 0 
L 50 4666 
L 709 4666 
L 2188 738 
L 3669 4666 
L 4325 4666 
L 2547 0 
L 1831 0 
z
" transform="scale(0.015625)"/>
      <path id="DejaVuSans-5f" d="M 3263 -1063 
L 3263 -1509 
L -63 -1509 
L -63 -1063 
L 3263 -1063 
z
" transform="scale(0.015625)"/>
      <path id="DejaVuSans-49" d="M 628 4666 
L 1259 4666 
L 1259 0 
L 628 0 
L 628 4666 
z
" transform="scale(0.015625)"/>
      <path id="DejaVuSans-4e" d="M 628 4666 
L 1478 4666 
L 3547 763 
L 3547 4666 
L 4159 4666 
L 4159 0 
L 3309 0 
L 1241 3903 
L 1241 0 
L 628 0 
L 628 4666 
z
" transform="scale(0.015625)"/>
     </defs>
     <use xlink:href="#DejaVuSans-31"/>
     <use xlink:href="#DejaVuSans-20" transform="translate(63.623047 0)"/>
     <use xlink:href="#DejaVuSans-35" transform="translate(95.410156 0)"/>
     <use xlink:href="#DejaVuSans-56" transform="translate(159.033203 0)"/>
     <use xlink:href="#DejaVuSans-5f" transform="translate(227.441406 0)"/>
     <use xlink:href="#DejaVuSans-49" transform="translate(277.441406 0)"/>
     <use xlink:href="#DejaVuSans-4e" transform="translate(306.933594 0)"/>
    </g>
    <!-- 2 VOUT -->
    <g transform="translate(118.933172 174.593644) scale(0.078 -0.078)">
     <defs>
      <path id="DejaVuSans-32" d="M 1228 531 
L 3431 531 
L 3431 0 
L 469 0 
L 469 531 
Q 828 903 1448 1529 
Q 2069 2156 2228 2338 
Q 2531 2678 2651 2914 
Q 2772 3150 2772 3378 
Q 2772 3750 2511 3984 
Q 2250 4219 1831 4219 
Q 1534 4219 1204 4116 
Q 875 4013 500 3803 
L 500 4441 
Q 881 4594 1212 4672 
Q 1544 4750 1819 4750 
Q 2544 4750 2975 4387 
Q 3406 4025 3406 3419 
Q 3406 3131 3298 2873 
Q 3191 2616 2906 2266 
Q 2828 2175 2409 1742 
Q 1991 1309 1228 531 
z
" transform="scale(0.015625)"/>
      <path id="DejaVuSans-4f" d="M 2522 4238 
Q 1834 4238 1429 3725 
Q 1025 3213 1025 2328 
Q 1025 1447 1429 934 
Q 1834 422 2522 422 
Q 3209 422 3611 934 
Q 4013 1447 4013 2328 
Q 4013 3213 3611 3725 
Q 3209 4238 2522 4238 
z
M 2522 4750 
Q 3503 4750 4090 4092 
Q 4678 3434 4678 2328 
Q 4678 1225 4090 567 
Q 3503 -91 2522 -91 
Q 1538 -91 948 565 
Q 359 1222 359 2328 
Q 359 3434 948 4092 
Q 1538 4750 2522 4750 
z
" transform="scale(0.015625)"/>
      <path id="DejaVuSans-55" d="M 556 4666 
L 1191 4666 
L 1191 1831 
Q 1191 1081 1462 751 
Q 1734 422 2344 422 
Q 2950 422 3222 751 
Q 3494 1081 3494 1831 
L 3494 4666 
L 4128 4666 
L 4128 1753 
Q 4128 841 3676 375 
Q 3225 -91 2344 -91 
Q 1459 -91 1007 375 
Q 556 841 556 1753 
L 556 4666 
z
" transform="scale(0.015625)"/>
      <path id="DejaVuSans-54" d="M -19 4666 
L 3928 4666 
L 3928 4134 
L 2272 4134 
L 2272 0 
L 1638 0 
L 1638 4134 
L -19 4134 
L -19 4666 
z
" transform="scale(0.015625)"/>
     </defs>
     <use xlink:href="#DejaVuSans-32"/>
     <use xlink:href="#DejaVuSans-20" transform="translate(63.623047 0)"/>
     <use xlink:href="#DejaVuSans-56" transform="translate(95.410156 0)"/>
     <use xlink:href="#DejaVuSans-4f" transform="translate(162.068359 0)"/>
     <use xlink:href="#DejaVuSans-55" transform="translate(240.779297 0)"/>
     <use xlink:href="#DejaVuSans-54" transform="translate(313.972656 0)"/>
    </g>
    <!-- 3 GND_HOST -->
    <g transform="translate(108.085687 183.327937) scale(0.078 -0.078)">
     <defs>
      <path id="DejaVuSans-33" d="M 2597 2516 
Q 3050 2419 3304 2112 
Q 3559 1806 3559 1356 
Q 3559 666 3084 287 
Q 2609 -91 1734 -91 
Q 1441 -91 1130 -33 
Q 819 25 488 141 
L 488 750 
Q 750 597 1062 519 
Q 1375 441 1716 441 
Q 2309 441 2620 675 
Q 2931 909 2931 1356 
Q 2931 1769 2642 2001 
Q 2353 2234 1838 2234 
L 1294 2234 
L 1294 2753 
L 1863 2753 
Q 2328 2753 2575 2939 
Q 2822 3125 2822 3475 
Q 2822 3834 2567 4026 
Q 2313 4219 1838 4219 
Q 1578 4219 1281 4162 
Q 984 4106 628 3988 
L 628 4550 
Q 988 4650 1302 4700 
Q 1616 4750 1894 4750 
Q 2613 4750 3031 4423 
Q 3450 4097 3450 3541 
Q 3450 3153 3228 2886 
Q 3006 2619 2597 2516 
z
" transform="scale(0.015625)"/>
      <path id="DejaVuSans-47" d="M 3809 666 
L 3809 1919 
L 2778 1919 
L 2778 2438 
L 4434 2438 
L 4434 434 
Q 4069 175 3628 42 
Q 3188 -91 2688 -91 
Q 1594 -91 976 548 
Q 359 1188 359 2328 
Q 359 3472 976 4111 
Q 1594 4750 2688 4750 
Q 3144 4750 3555 4637 
Q 3966 4525 4313 4306 
L 4313 3634 
Q 3963 3931 3569 4081 
Q 3175 4231 2741 4231 
Q 1884 4231 1454 3753 
Q 1025 3275 1025 2328 
Q 1025 1384 1454 906 
Q 1884 428 2741 428 
Q 3075 428 3337 486 
Q 3600 544 3809 666 
z
" transform="scale(0.015625)"/>
      <path id="DejaVuSans-44" d="M 1259 4147 
L 1259 519 
L 2022 519 
Q 2988 519 3436 956 
Q 3884 1394 3884 2338 
Q 3884 3275 3436 3711 
Q 2988 4147 2022 4147 
L 1259 4147 
z
M 628 4666 
L 1925 4666 
Q 3281 4666 3915 4102 
Q 4550 3538 4550 2338 
Q 4550 1131 3912 565 
Q 3275 0 1925 0 
L 628 0 
L 628 4666 
z
" transform="scale(0.015625)"/>
      <path id="DejaVuSans-48" d="M 628 4666 
L 1259 4666 
L 1259 2753 
L 3553 2753 
L 3553 4666 
L 4184 4666 
L 4184 0 
L 3553 0 
L 3553 2222 
L 1259 2222 
L 1259 0 
L 628 0 
L 628 4666 
z
" transform="scale(0.015625)"/>
      <path id="DejaVuSans-53" d="M 3425 4513 
L 3425 3897 
Q 3066 4069 2747 4153 
Q 2428 4238 2131 4238 
Q 1616 4238 1336 4038 
Q 1056 3838 1056 3469 
Q 1056 3159 1242 3001 
Q 1428 2844 1947 2747 
L 2328 2669 
Q 3034 2534 3370 2195 
Q 3706 1856 3706 1288 
Q 3706 609 3251 259 
Q 2797 -91 1919 -91 
Q 1588 -91 1214 -16 
Q 841 59 441 206 
L 441 856 
Q 825 641 1194 531 
Q 1563 422 1919 422 
Q 2459 422 2753 634 
Q 3047 847 3047 1241 
Q 3047 1584 2836 1778 
Q 2625 1972 2144 2069 
L 1759 2144 
Q 1053 2284 737 2584 
Q 422 2884 422 3419 
Q 422 4038 858 4394 
Q 1294 4750 2059 4750 
Q 2388 4750 2728 4690 
Q 3069 4631 3425 4513 
z
" transform="scale(0.015625)"/>
     </defs>
     <use xlink:href="#DejaVuSans-33"/>
     <use xlink:href="#DejaVuSans-20" transform="translate(63.623047 0)"/>
     <use xlink:href="#DejaVuSans-47" transform="translate(95.410156 0)"/>
     <use xlink:href="#DejaVuSans-4e" transform="translate(172.900391 0)"/>
     <use xlink:href="#DejaVuSans-44" transform="translate(247.705078 0)"/>
     <use xlink:href="#DejaVuSans-5f" transform="translate(324.707031 0)"/>
     <use xlink:href="#DejaVuSans-48" transform="translate(374.707031 0)"/>
     <use xlink:href="#DejaVuSans-4f" transform="translate(449.902344 0)"/>
     <use xlink:href="#DejaVuSans-53" transform="translate(528.613281 0)"/>
     <use xlink:href="#DejaVuSans-54" transform="translate(592.089844 0)"/>
    </g>
   </g>
   <g id="text_4">
    <!-- J2 SENSOR -->
    <g transform="translate(699.854016 140.467912) scale(0.078 -0.078)">
     <use xlink:href="#DejaVuSans-Bold-4a"/>
     <use xlink:href="#DejaVuSans-Bold-32" transform="translate(37.207031 0)"/>
     <use xlink:href="#DejaVuSans-Bold-20" transform="translate(106.787109 0)"/>
     <use xlink:href="#DejaVuSans-Bold-53" transform="translate(141.601562 0)"/>
     <use xlink:href="#DejaVuSans-Bold-45" transform="translate(213.623047 0)"/>
     <use xlink:href="#DejaVuSans-Bold-4e" transform="translate(281.933594 0)"/>
     <use xlink:href="#DejaVuSans-Bold-53" transform="translate(365.625 0)"/>
     <use xlink:href="#DejaVuSans-Bold-4f" transform="translate(437.646484 0)"/>
     <use xlink:href="#DejaVuSans-Bold-52" transform="translate(522.65625 0)"/>
    </g>
   </g>
   <g id="text_5">
    <!-- 1 5V_ISO -->
    <g transform="translate(705.723516 165.682022) scale(0.078 -0.078)">
     <use xlink:href="#DejaVuSans-31"/>
     <use xlink:href="#DejaVuSans-20" transform="translate(63.623047 0)"/>
     <use xlink:href="#DejaVuSans-35" transform="translate(95.410156 0)"/>
     <use xlink:href="#DejaVuSans-56" transform="translate(159.033203 0)"/>
     <use xlink:href="#DejaVuSans-5f" transform="translate(227.441406 0)"/>
     <use xlink:href="#DejaVuSans-49" transform="translate(277.441406 0)"/>
     <use xlink:href="#DejaVuSans-53" transform="translate(306.933594 0)"/>
     <use xlink:href="#DejaVuSans-4f" transform="translate(370.410156 0)"/>
    </g>
    <!-- 2 VIN -->
    <g transform="translate(712.783125 174.633253) scale(0.078 -0.078)">
     <use xlink:href="#DejaVuSans-32"/>
     <use xlink:href="#DejaVuSans-20" transform="translate(63.623047 0)"/>
     <use xlink:href="#DejaVuSans-56" transform="translate(95.410156 0)"/>
     <use xlink:href="#DejaVuSans-49" transform="translate(163.818359 0)"/>
     <use xlink:href="#DejaVuSans-4e" transform="translate(193.310547 0)"/>
    </g>
    <!-- 3 GND_ISO -->
    <g transform="translate(701.930156 183.367547) scale(0.078 -0.078)">
     <use xlink:href="#DejaVuSans-33"/>
     <use xlink:href="#DejaVuSans-20" transform="translate(63.623047 0)"/>
     <use xlink:href="#DejaVuSans-47" transform="translate(95.410156 0)"/>
     <use xlink:href="#DejaVuSans-4e" transform="translate(172.900391 0)"/>
     <use xlink:href="#DejaVuSans-44" transform="translate(247.705078 0)"/>
     <use xlink:href="#DejaVuSans-5f" transform="translate(324.707031 0)"/>
     <use xlink:href="#DejaVuSans-49" transform="translate(374.707031 0)"/>
     <use xlink:href="#DejaVuSans-53" transform="translate(404.199219 0)"/>
     <use xlink:href="#DejaVuSans-4f" transform="translate(467.675781 0)"/>
    </g>
   </g>
   <g id="text_6">
    <!-- ISOLATOR MODULE -->
    <g transform="translate(387.073258 136.143719) scale(0.077 -0.077)">
     <defs>
      <path id="DejaVuSans-Bold-4c" d="M 588 4666 
L 1791 4666 
L 1791 909 
L 3903 909 
L 3903 0 
L 588 0 
L 588 4666 
z
" transform="scale(0.015625)"/>
      <path id="DejaVuSans-Bold-41" d="M 3419 850 
L 1538 850 
L 1241 0 
L 31 0 
L 1759 4666 
L 3194 4666 
L 4922 0 
L 3713 0 
L 3419 850 
z
M 1838 1716 
L 3116 1716 
L 2478 3572 
L 1838 1716 
z
" transform="scale(0.015625)"/>
      <path id="DejaVuSans-Bold-4d" d="M 588 4666 
L 2119 4666 
L 3181 2169 
L 4250 4666 
L 5778 4666 
L 5778 0 
L 4641 0 
L 4641 3413 
L 3566 897 
L 2803 897 
L 1728 3413 
L 1728 0 
L 588 0 
L 588 4666 
z
" transform="scale(0.015625)"/>
      <path id="DejaVuSans-Bold-44" d="M 1791 3756 
L 1791 909 
L 2222 909 
Q 2959 909 3348 1275 
Q 3738 1641 3738 2338 
Q 3738 3031 3350 3393 
Q 2963 3756 2222 3756 
L 1791 3756 
z
M 588 4666 
L 1856 4666 
Q 2919 4666 3439 4514 
Q 3959 4363 4331 4000 
Q 4659 3684 4818 3271 
Q 4978 2859 4978 2338 
Q 4978 1809 4818 1395 
Q 4659 981 4331 666 
Q 3956 303 3431 151 
Q 2906 0 1856 0 
L 588 0 
L 588 4666 
z
" transform="scale(0.015625)"/>
      <path id="DejaVuSans-Bold-55" d="M 588 4666 
L 1791 4666 
L 1791 1869 
Q 1791 1291 1980 1042 
Q 2169 794 2597 794 
Q 3028 794 3217 1042 
Q 3406 1291 3406 1869 
L 3406 4666 
L 4609 4666 
L 4609 1869 
Q 4609 878 4112 393 
Q 3616 -91 2597 -91 
Q 1581 -91 1084 393 
Q 588 878 588 1869 
L 588 4666 
z
" transform="scale(0.015625)"/>
     </defs>
     <use xlink:href="#DejaVuSans-Bold-49"/>
     <use xlink:href="#DejaVuSans-Bold-53" transform="translate(37.207031 0)"/>
     <use xlink:href="#DejaVuSans-Bold-4f" transform="translate(109.228516 0)"/>
     <use xlink:href="#DejaVuSans-Bold-4c" transform="translate(194.238281 0)"/>
     <use xlink:href="#DejaVuSans-Bold-41" transform="translate(257.958984 0)"/>
     <use xlink:href="#DejaVuSans-Bold-54" transform="translate(327.601562 0)"/>
     <use xlink:href="#DejaVuSans-Bold-4f" transform="translate(395.814453 0)"/>
     <use xlink:href="#DejaVuSans-Bold-52" transform="translate(480.824219 0)"/>
     <use xlink:href="#DejaVuSans-Bold-20" transform="translate(557.826172 0)"/>
     <use xlink:href="#DejaVuSans-Bold-4d" transform="translate(592.640625 0)"/>
     <use xlink:href="#DejaVuSans-Bold-4f" transform="translate(692.152344 0)"/>
     <use xlink:href="#DejaVuSans-Bold-44" transform="translate(777.162109 0)"/>
     <use xlink:href="#DejaVuSans-Bold-55" transform="translate(860.169922 0)"/>
     <use xlink:href="#DejaVuSans-Bold-4c" transform="translate(941.371094 0)"/>
     <use xlink:href="#DejaVuSans-Bold-45" transform="translate(1005.091797 0)"/>
    </g>
   </g>
   <g id="text_7">
    <!-- Q1 AO3401A + FB1 -->
    <g transform="translate(390.688648 180.189403) scale(0.077 -0.077)">
     <defs>
      <path id="DejaVuSans-51" d="M 2522 4238 
Q 1834 4238 1429 3725 
Q 1025 3213 1025 2328 
Q 1025 1447 1429 934 
Q 1834 422 2522 422 
Q 3209 422 3611 934 
Q 4013 1447 4013 2328 
Q 4013 3213 3611 3725 
Q 3209 4238 2522 4238 
z
M 3406 84 
L 4238 -825 
L 3475 -825 
L 2784 -78 
Q 2681 -84 2626 -87 
Q 2572 -91 2522 -91 
Q 1538 -91 948 567 
Q 359 1225 359 2328 
Q 359 3434 948 4092 
Q 1538 4750 2522 4750 
Q 3503 4750 4090 4092 
Q 4678 3434 4678 2328 
Q 4678 1516 4351 937 
Q 4025 359 3406 84 
z
" transform="scale(0.015625)"/>
      <path id="DejaVuSans-41" d="M 2188 4044 
L 1331 1722 
L 3047 1722 
L 2188 4044 
z
M 1831 4666 
L 2547 4666 
L 4325 0 
L 3669 0 
L 3244 1197 
L 1141 1197 
L 716 0 
L 50 0 
L 1831 4666 
z
" transform="scale(0.015625)"/>
      <path id="DejaVuSans-34" d="M 2419 4116 
L 825 1625 
L 2419 1625 
L 2419 4116 
z
M 2253 4666 
L 3047 4666 
L 3047 1625 
L 3713 1625 
L 3713 1100 
L 3047 1100 
L 3047 0 
L 2419 0 
L 2419 1100 
L 313 1100 
L 313 1709 
L 2253 4666 
z
" transform="scale(0.015625)"/>
      <path id="DejaVuSans-30" d="M 2034 4250 
Q 1547 4250 1301 3770 
Q 1056 3291 1056 2328 
Q 1056 1369 1301 889 
Q 1547 409 2034 409 
Q 2525 409 2770 889 
Q 3016 1369 3016 2328 
Q 3016 3291 2770 3770 
Q 2525 4250 2034 4250 
z
M 2034 4750 
Q 2819 4750 3233 4129 
Q 3647 3509 3647 2328 
Q 3647 1150 3233 529 
Q 2819 -91 2034 -91 
Q 1250 -91 836 529 
Q 422 1150 422 2328 
Q 422 3509 836 4129 
Q 1250 4750 2034 4750 
z
" transform="scale(0.015625)"/>
      <path id="DejaVuSans-2b" d="M 2944 4013 
L 2944 2272 
L 4684 2272 
L 4684 1741 
L 2944 1741 
L 2944 0 
L 2419 0 
L 2419 1741 
L 678 1741 
L 678 2272 
L 2419 2272 
L 2419 4013 
L 2944 4013 
z
" transform="scale(0.015625)"/>
      <path id="DejaVuSans-46" d="M 628 4666 
L 3309 4666 
L 3309 4134 
L 1259 4134 
L 1259 2759 
L 3109 2759 
L 3109 2228 
L 1259 2228 
L 1259 0 
L 628 0 
L 628 4666 
z
" transform="scale(0.015625)"/>
      <path id="DejaVuSans-42" d="M 1259 2228 
L 1259 519 
L 2272 519 
Q 2781 519 3026 730 
Q 3272 941 3272 1375 
Q 3272 1813 3026 2020 
Q 2781 2228 2272 2228 
L 1259 2228 
z
M 1259 4147 
L 1259 2741 
L 2194 2741 
Q 2656 2741 2882 2914 
Q 3109 3088 3109 3444 
Q 3109 3797 2882 3972 
Q 2656 4147 2194 4147 
L 1259 4147 
z
M 628 4666 
L 2241 4666 
Q 2963 4666 3353 4366 
Q 3744 4066 3744 3513 
Q 3744 3084 3544 2831 
Q 3344 2578 2956 2516 
Q 3422 2416 3680 2098 
Q 3938 1781 3938 1306 
Q 3938 681 3513 340 
Q 3088 0 2303 0 
L 628 0 
L 628 4666 
z
" transform="scale(0.015625)"/>
     </defs>
     <use xlink:href="#DejaVuSans-51"/>
     <use xlink:href="#DejaVuSans-31" transform="translate(78.710938 0)"/>
     <use xlink:href="#DejaVuSans-20" transform="translate(142.333984 0)"/>
     <use xlink:href="#DejaVuSans-41" transform="translate(174.121094 0)"/>
     <use xlink:href="#DejaVuSans-4f" transform="translate(240.779297 0)"/>
     <use xlink:href="#DejaVuSans-33" transform="translate(319.490234 0)"/>
     <use xlink:href="#DejaVuSans-34" transform="translate(383.113281 0)"/>
     <use xlink:href="#DejaVuSans-30" transform="translate(446.736328 0)"/>
     <use xlink:href="#DejaVuSans-31" transform="translate(510.359375 0)"/>
     <use xlink:href="#DejaVuSans-41" transform="translate(573.982422 0)"/>
     <use xlink:href="#DejaVuSans-20" transform="translate(642.390625 0)"/>
     <use xlink:href="#DejaVuSans-2b" transform="translate(674.177734 0)"/>
     <use xlink:href="#DejaVuSans-20" transform="translate(757.966797 0)"/>
     <use xlink:href="#DejaVuSans-46" transform="translate(789.753906 0)"/>
     <use xlink:href="#DejaVuSans-42" transform="translate(847.273438 0)"/>
     <use xlink:href="#DejaVuSans-31" transform="translate(915.876953 0)"/>
    </g>
    <!-- HCNR201 + OPA317 -->
    <g transform="translate(389.149852 188.811719) scale(0.077 -0.077)">
     <defs>
      <path id="DejaVuSans-43" d="M 4122 4306 
L 4122 3641 
Q 3803 3938 3442 4084 
Q 3081 4231 2675 4231 
Q 1875 4231 1450 3742 
Q 1025 3253 1025 2328 
Q 1025 1406 1450 917 
Q 1875 428 2675 428 
Q 3081 428 3442 575 
Q 3803 722 4122 1019 
L 4122 359 
Q 3791 134 3420 21 
Q 3050 -91 2638 -91 
Q 1578 -91 968 557 
Q 359 1206 359 2328 
Q 359 3453 968 4101 
Q 1578 4750 2638 4750 
Q 3056 4750 3426 4639 
Q 3797 4528 4122 4306 
z
" transform="scale(0.015625)"/>
      <path id="DejaVuSans-52" d="M 2841 2188 
Q 3044 2119 3236 1894 
Q 3428 1669 3622 1275 
L 4263 0 
L 3584 0 
L 2988 1197 
Q 2756 1666 2539 1819 
Q 2322 1972 1947 1972 
L 1259 1972 
L 1259 0 
L 628 0 
L 628 4666 
L 2053 4666 
Q 2853 4666 3247 4331 
Q 3641 3997 3641 3322 
Q 3641 2881 3436 2590 
Q 3231 2300 2841 2188 
z
M 1259 4147 
L 1259 2491 
L 2053 2491 
Q 2509 2491 2742 2702 
Q 2975 2913 2975 3322 
Q 2975 3731 2742 3939 
Q 2509 4147 2053 4147 
L 1259 4147 
z
" transform="scale(0.015625)"/>
      <path id="DejaVuSans-50" d="M 1259 4147 
L 1259 2394 
L 2053 2394 
Q 2494 2394 2734 2622 
Q 2975 2850 2975 3272 
Q 2975 3691 2734 3919 
Q 2494 4147 2053 4147 
L 1259 4147 
z
M 628 4666 
L 2053 4666 
Q 2838 4666 3239 4311 
Q 3641 3956 3641 3272 
Q 3641 2581 3239 2228 
Q 2838 1875 2053 1875 
L 1259 1875 
L 1259 0 
L 628 0 
L 628 4666 
z
" transform="scale(0.015625)"/>
      <path id="DejaVuSans-37" d="M 525 4666 
L 3525 4666 
L 3525 4397 
L 1831 0 
L 1172 0 
L 2766 4134 
L 525 4134 
L 525 4666 
z
" transform="scale(0.015625)"/>
     </defs>
     <use xlink:href="#DejaVuSans-48"/>
     <use xlink:href="#DejaVuSans-43" transform="translate(75.195312 0)"/>
     <use xlink:href="#DejaVuSans-4e" transform="translate(145.019531 0)"/>
     <use xlink:href="#DejaVuSans-52" transform="translate(219.824219 0)"/>
     <use xlink:href="#DejaVuSans-32" transform="translate(289.306641 0)"/>
     <use xlink:href="#DejaVuSans-30" transform="translate(352.929688 0)"/>
     <use xlink:href="#DejaVuSans-31" transform="translate(416.552734 0)"/>
     <use xlink:href="#DejaVuSans-20" transform="translate(480.175781 0)"/>
     <use xlink:href="#DejaVuSans-2b" transform="translate(511.962891 0)"/>
     <use xlink:href="#DejaVuSans-20" transform="translate(595.751953 0)"/>
     <use xlink:href="#DejaVuSans-4f" transform="translate(627.539062 0)"/>
     <use xlink:href="#DejaVuSans-50" transform="translate(706.25 0)"/>
     <use xlink:href="#DejaVuSans-41" transform="translate(760.177734 0)"/>
     <use xlink:href="#DejaVuSans-33" transform="translate(828.585938 0)"/>
     <use xlink:href="#DejaVuSans-31" transform="translate(892.208984 0)"/>
     <use xlink:href="#DejaVuSans-37" transform="translate(955.832031 0)"/>
    </g>
    <!-- SW1 24/33/50 -->
    <g transform="translate(401.184711 197.434034) scale(0.077 -0.077)">
     <defs>
      <path id="DejaVuSans-57" d="M 213 4666 
L 850 4666 
L 1831 722 
L 2809 4666 
L 3519 4666 
L 4500 722 
L 5478 4666 
L 6119 4666 
L 4947 0 
L 4153 0 
L 3169 4050 
L 2175 0 
L 1381 0 
L 213 4666 
z
" transform="scale(0.015625)"/>
      <path id="DejaVuSans-2f" d="M 1625 4666 
L 2156 4666 
L 531 -594 
L 0 -594 
L 1625 4666 
z
" transform="scale(0.015625)"/>
     </defs>
     <use xlink:href="#DejaVuSans-53"/>
     <use xlink:href="#DejaVuSans-57" transform="translate(63.476562 0)"/>
     <use xlink:href="#DejaVuSans-31" transform="translate(162.353516 0)"/>
     <use xlink:href="#DejaVuSans-20" transform="translate(225.976562 0)"/>
     <use xlink:href="#DejaVuSans-32" transform="translate(257.763672 0)"/>
     <use xlink:href="#DejaVuSans-34" transform="translate(321.386719 0)"/>
     <use xlink:href="#DejaVuSans-2f" transform="translate(385.009766 0)"/>
     <use xlink:href="#DejaVuSans-33" transform="translate(418.701172 0)"/>
     <use xlink:href="#DejaVuSans-33" transform="translate(482.324219 0)"/>
     <use xlink:href="#DejaVuSans-2f" transform="translate(545.947266 0)"/>
     <use xlink:href="#DejaVuSans-35" transform="translate(579.638672 0)"/>
     <use xlink:href="#DejaVuSans-30" transform="translate(643.261719 0)"/>
    </g>
   </g>
   <g id="patch_6">
    <path d="M 205.757191 138.87 
Q 261.674849 138.87 316.027259 138.87 
" style="fill: none; stroke: #000000; stroke-width: 1.4; stroke-linecap: round"/>
    <path d="M 312.027259 136.87 
L 316.027259 138.87 
L 312.027259 140.87 
" style="fill: none; stroke: #000000; stroke-width: 1.4; stroke-linecap: round"/>
   </g>
   <g id="text_8">
    <!-- 5V_IN -->
    <g transform="translate(251.301969 128.132875) scale(0.07 -0.07)">
     <use xlink:href="#DejaVuSans-35"/>
     <use xlink:href="#DejaVuSans-56" transform="translate(63.623047 0)"/>
     <use xlink:href="#DejaVuSans-5f" transform="translate(132.03125 0)"/>
     <use xlink:href="#DejaVuSans-49" transform="translate(182.03125 0)"/>
     <use xlink:href="#DejaVuSans-4e" transform="translate(211.523438 0)"/>
    </g>
   </g>
   <g id="patch_7">
    <path d="M 205.757191 170.055 
Q 261.674849 170.055 316.027259 170.055 
" style="fill: none; stroke: #000000; stroke-width: 1.4; stroke-linecap: round"/>
    <path d="M 312.027259 168.055 
L 316.027259 170.055 
L 312.027259 172.055 
" style="fill: none; stroke: #000000; stroke-width: 1.4; stroke-linecap: round"/>
   </g>
   <g id="text_9">
    <!-- VOUT -->
    <g transform="translate(251.536578 159.512562) scale(0.07 -0.07)">
     <use xlink:href="#DejaVuSans-56"/>
     <use xlink:href="#DejaVuSans-4f" transform="translate(66.658203 0)"/>
     <use xlink:href="#DejaVuSans-55" transform="translate(145.369141 0)"/>
     <use xlink:href="#DejaVuSans-54" transform="translate(218.5625 0)"/>
    </g>
   </g>
   <g id="patch_8">
    <path d="M 205.757191 201.24 
Q 261.674849 201.24 316.027259 201.24 
" style="fill: none; stroke: #000000; stroke-width: 1.4; stroke-linecap: round"/>
    <path d="M 312.027259 199.24 
L 316.027259 201.24 
L 312.027259 203.24 
" style="fill: none; stroke: #000000; stroke-width: 1.4; stroke-linecap: round"/>
   </g>
   <g id="text_10">
    <!-- GND_HOST -->
    <g transform="translate(241.801656 190.538422) scale(0.07 -0.07)">
     <use xlink:href="#DejaVuSans-47"/>
     <use xlink:href="#DejaVuSans-4e" transform="translate(77.490234 0)"/>
     <use xlink:href="#DejaVuSans-44" transform="translate(152.294922 0)"/>
     <use xlink:href="#DejaVuSans-5f" transform="translate(229.296875 0)"/>
     <use xlink:href="#DejaVuSans-48" transform="translate(279.296875 0)"/>
     <use xlink:href="#DejaVuSans-4f" transform="translate(354.492188 0)"/>
     <use xlink:href="#DejaVuSans-53" transform="translate(433.203125 0)"/>
     <use xlink:href="#DejaVuSans-54" transform="translate(496.679688 0)"/>
    </g>
   </g>
   <g id="patch_9">
    <path d="M 539.207191 138.87 
Q 595.124849 138.87 649.477259 138.87 
" style="fill: none; stroke: #000000; stroke-width: 1.4; stroke-linecap: round"/>
    <path d="M 645.477259 136.87 
L 649.477259 138.87 
L 645.477259 140.87 
" style="fill: none; stroke: #000000; stroke-width: 1.4; stroke-linecap: round"/>
   </g>
   <g id="text_11">
    <!-- 5V_ISO -->
    <g transform="translate(583.095297 128.168422) scale(0.07 -0.07)">
     <use xlink:href="#DejaVuSans-35"/>
     <use xlink:href="#DejaVuSans-56" transform="translate(63.623047 0)"/>
     <use xlink:href="#DejaVuSans-5f" transform="translate(132.03125 0)"/>
     <use xlink:href="#DejaVuSans-49" transform="translate(182.03125 0)"/>
     <use xlink:href="#DejaVuSans-53" transform="translate(211.523438 0)"/>
     <use xlink:href="#DejaVuSans-4f" transform="translate(275 0)"/>
    </g>
   </g>
   <g id="patch_10">
    <path d="M 651.042809 170.055 
Q 595.125151 170.055 540.772741 170.055 
" style="fill: none; stroke: #000000; stroke-width: 1.4; stroke-linecap: round"/>
    <path d="M 544.772741 172.055 
L 540.772741 170.055 
L 544.772741 168.055 
" style="fill: none; stroke: #000000; stroke-width: 1.4; stroke-linecap: round"/>
   </g>
   <g id="text_12">
    <!-- VIN SENSOR -->
    <g transform="translate(573.857484 159.512562) scale(0.07 -0.07)">
     <defs>
      <path id="DejaVuSans-45" d="M 628 4666 
L 3578 4666 
L 3578 4134 
L 1259 4134 
L 1259 2753 
L 3481 2753 
L 3481 2222 
L 1259 2222 
L 1259 531 
L 3634 531 
L 3634 0 
L 628 0 
L 628 4666 
z
" transform="scale(0.015625)"/>
     </defs>
     <use xlink:href="#DejaVuSans-56"/>
     <use xlink:href="#DejaVuSans-49" transform="translate(68.408203 0)"/>
     <use xlink:href="#DejaVuSans-4e" transform="translate(97.900391 0)"/>
     <use xlink:href="#DejaVuSans-20" transform="translate(172.705078 0)"/>
     <use xlink:href="#DejaVuSans-53" transform="translate(204.492188 0)"/>
     <use xlink:href="#DejaVuSans-45" transform="translate(267.96875 0)"/>
     <use xlink:href="#DejaVuSans-4e" transform="translate(331.152344 0)"/>
     <use xlink:href="#DejaVuSans-53" transform="translate(405.957031 0)"/>
     <use xlink:href="#DejaVuSans-4f" transform="translate(469.433594 0)"/>
     <use xlink:href="#DejaVuSans-52" transform="translate(548.144531 0)"/>
    </g>
   </g>
   <g id="patch_11">
    <path d="M 539.207191 201.24 
Q 595.124849 201.24 649.477259 201.24 
" style="fill: none; stroke: #000000; stroke-width: 1.4; stroke-linecap: round"/>
    <path d="M 645.477259 199.24 
L 649.477259 201.24 
L 645.477259 203.24 
" style="fill: none; stroke: #000000; stroke-width: 1.4; stroke-linecap: round"/>
   </g>
   <g id="text_13">
    <!-- GND_ISO -->
    <g transform="translate(579.691 190.538422) scale(0.07 -0.07)">
     <use xlink:href="#DejaVuSans-47"/>
     <use xlink:href="#DejaVuSans-4e" transform="translate(77.490234 0)"/>
     <use xlink:href="#DejaVuSans-44" transform="translate(152.294922 0)"/>
     <use xlink:href="#DejaVuSans-5f" transform="translate(229.296875 0)"/>
     <use xlink:href="#DejaVuSans-49" transform="translate(279.296875 0)"/>
     <use xlink:href="#DejaVuSans-53" transform="translate(308.789062 0)"/>
     <use xlink:href="#DejaVuSans-4f" transform="translate(372.265625 0)"/>
    </g>
   </g>
   <g id="text_14">
    <!-- Installation requirements -->
    <g transform="translate(80.91 335.393437) scale(0.09 -0.09)">
     <defs>
      <path id="DejaVuSans-Bold-6e" d="M 4056 2131 
L 4056 0 
L 2931 0 
L 2931 347 
L 2931 1631 
Q 2931 2084 2911 2256 
Q 2891 2428 2841 2509 
Q 2775 2619 2662 2680 
Q 2550 2741 2406 2741 
Q 2056 2741 1856 2470 
Q 1656 2200 1656 1722 
L 1656 0 
L 538 0 
L 538 3500 
L 1656 3500 
L 1656 2988 
Q 1909 3294 2193 3439 
Q 2478 3584 2822 3584 
Q 3428 3584 3742 3212 
Q 4056 2841 4056 2131 
z
" transform="scale(0.015625)"/>
      <path id="DejaVuSans-Bold-73" d="M 3272 3391 
L 3272 2541 
Q 2913 2691 2578 2766 
Q 2244 2841 1947 2841 
Q 1628 2841 1473 2761 
Q 1319 2681 1319 2516 
Q 1319 2381 1436 2309 
Q 1553 2238 1856 2203 
L 2053 2175 
Q 2913 2066 3209 1816 
Q 3506 1566 3506 1031 
Q 3506 472 3093 190 
Q 2681 -91 1863 -91 
Q 1516 -91 1145 -36 
Q 775 19 384 128 
L 384 978 
Q 719 816 1070 734 
Q 1422 653 1784 653 
Q 2113 653 2278 743 
Q 2444 834 2444 1013 
Q 2444 1163 2330 1236 
Q 2216 1309 1875 1350 
L 1678 1375 
Q 931 1469 631 1722 
Q 331 1975 331 2491 
Q 331 3047 712 3315 
Q 1094 3584 1881 3584 
Q 2191 3584 2531 3537 
Q 2872 3491 3272 3391 
z
" transform="scale(0.015625)"/>
      <path id="DejaVuSans-Bold-74" d="M 1759 4494 
L 1759 3500 
L 2913 3500 
L 2913 2700 
L 1759 2700 
L 1759 1216 
Q 1759 972 1856 886 
Q 1953 800 2241 800 
L 2816 800 
L 2816 0 
L 1856 0 
Q 1194 0 917 276 
Q 641 553 641 1216 
L 641 2700 
L 84 2700 
L 84 3500 
L 641 3500 
L 641 4494 
L 1759 4494 
z
" transform="scale(0.015625)"/>
      <path id="DejaVuSans-Bold-61" d="M 2106 1575 
Q 1756 1575 1579 1456 
Q 1403 1338 1403 1106 
Q 1403 894 1545 773 
Q 1688 653 1941 653 
Q 2256 653 2472 879 
Q 2688 1106 2688 1447 
L 2688 1575 
L 2106 1575 
z
M 3816 1997 
L 3816 0 
L 2688 0 
L 2688 519 
Q 2463 200 2181 54 
Q 1900 -91 1497 -91 
Q 953 -91 614 226 
Q 275 544 275 1050 
Q 275 1666 698 1953 
Q 1122 2241 2028 2241 
L 2688 2241 
L 2688 2328 
Q 2688 2594 2478 2717 
Q 2269 2841 1825 2841 
Q 1466 2841 1156 2769 
Q 847 2697 581 2553 
L 581 3406 
Q 941 3494 1303 3539 
Q 1666 3584 2028 3584 
Q 2975 3584 3395 3211 
Q 3816 2838 3816 1997 
z
" transform="scale(0.015625)"/>
      <path id="DejaVuSans-Bold-6c" d="M 538 4863 
L 1656 4863 
L 1656 0 
L 538 0 
L 538 4863 
z
" transform="scale(0.015625)"/>
      <path id="DejaVuSans-Bold-69" d="M 538 3500 
L 1656 3500 
L 1656 0 
L 538 0 
L 538 3500 
z
M 538 4863 
L 1656 4863 
L 1656 3950 
L 538 3950 
L 538 4863 
z
" transform="scale(0.015625)"/>
      <path id="DejaVuSans-Bold-6f" d="M 2203 2784 
Q 1831 2784 1636 2517 
Q 1441 2250 1441 1747 
Q 1441 1244 1636 976 
Q 1831 709 2203 709 
Q 2569 709 2762 976 
Q 2956 1244 2956 1747 
Q 2956 2250 2762 2517 
Q 2569 2784 2203 2784 
z
M 2203 3584 
Q 3106 3584 3614 3096 
Q 4122 2609 4122 1747 
Q 4122 884 3614 396 
Q 3106 -91 2203 -91 
Q 1297 -91 786 396 
Q 275 884 275 1747 
Q 275 2609 786 3096 
Q 1297 3584 2203 3584 
z
" transform="scale(0.015625)"/>
      <path id="DejaVuSans-Bold-72" d="M 3138 2547 
Q 2991 2616 2845 2648 
Q 2700 2681 2553 2681 
Q 2122 2681 1889 2404 
Q 1656 2128 1656 1613 
L 1656 0 
L 538 0 
L 538 3500 
L 1656 3500 
L 1656 2925 
Q 1872 3269 2151 3426 
Q 2431 3584 2822 3584 
Q 2878 3584 2943 3579 
Q 3009 3575 3134 3559 
L 3138 2547 
z
" transform="scale(0.015625)"/>
      <path id="DejaVuSans-Bold-65" d="M 4031 1759 
L 4031 1441 
L 1416 1441 
Q 1456 1047 1700 850 
Q 1944 653 2381 653 
Q 2734 653 3104 758 
Q 3475 863 3866 1075 
L 3866 213 
Q 3469 63 3072 -14 
Q 2675 -91 2278 -91 
Q 1328 -91 801 392 
Q 275 875 275 1747 
Q 275 2603 792 3093 
Q 1309 3584 2216 3584 
Q 3041 3584 3536 3087 
Q 4031 2591 4031 1759 
z
M 2881 2131 
Q 2881 2450 2695 2645 
Q 2509 2841 2209 2841 
Q 1884 2841 1681 2658 
Q 1478 2475 1428 2131 
L 2881 2131 
z
" transform="scale(0.015625)"/>
      <path id="DejaVuSans-Bold-71" d="M 2181 2772 
Q 1825 2772 1636 2509 
Q 1447 2247 1447 1747 
Q 1447 1247 1636 984 
Q 1825 722 2181 722 
Q 2541 722 2730 984 
Q 2919 1247 2919 1747 
Q 2919 2247 2730 2509 
Q 2541 2772 2181 2772 
z
M 2919 506 
Q 2688 197 2409 53 
Q 2131 -91 1766 -91 
Q 1119 -91 703 423 
Q 288 938 288 1747 
Q 288 2556 703 3067 
Q 1119 3578 1766 3578 
Q 2131 3578 2409 3434 
Q 2688 3291 2919 2981 
L 2919 3500 
L 4044 3500 
L 4044 -1331 
L 2919 -1331 
L 2919 506 
z
" transform="scale(0.015625)"/>
      <path id="DejaVuSans-Bold-75" d="M 500 1363 
L 500 3500 
L 1625 3500 
L 1625 3150 
Q 1625 2866 1622 2436 
Q 1619 2006 1619 1863 
Q 1619 1441 1641 1255 
Q 1663 1069 1716 984 
Q 1784 875 1895 815 
Q 2006 756 2150 756 
Q 2500 756 2700 1025 
Q 2900 1294 2900 1772 
L 2900 3500 
L 4019 3500 
L 4019 0 
L 2900 0 
L 2900 506 
Q 2647 200 2364 54 
Q 2081 -91 1741 -91 
Q 1134 -91 817 281 
Q 500 653 500 1363 
z
" transform="scale(0.015625)"/>
      <path id="DejaVuSans-Bold-6d" d="M 3781 2919 
Q 3994 3244 4286 3414 
Q 4578 3584 4928 3584 
Q 5531 3584 5847 3212 
Q 6163 2841 6163 2131 
L 6163 0 
L 5038 0 
L 5038 1825 
Q 5041 1866 5042 1909 
Q 5044 1953 5044 2034 
Q 5044 2406 4934 2573 
Q 4825 2741 4581 2741 
Q 4263 2741 4089 2478 
Q 3916 2216 3909 1719 
L 3909 0 
L 2784 0 
L 2784 1825 
Q 2784 2406 2684 2573 
Q 2584 2741 2328 2741 
Q 2006 2741 1831 2477 
Q 1656 2213 1656 1722 
L 1656 0 
L 531 0 
L 531 3500 
L 1656 3500 
L 1656 2988 
Q 1863 3284 2130 3434 
Q 2397 3584 2719 3584 
Q 3081 3584 3359 3409 
Q 3638 3234 3781 2919 
z
" transform="scale(0.015625)"/>
     </defs>
     <use xlink:href="#DejaVuSans-Bold-49"/>
     <use xlink:href="#DejaVuSans-Bold-6e" transform="translate(37.207031 0)"/>
     <use xlink:href="#DejaVuSans-Bold-73" transform="translate(108.398438 0)"/>
     <use xlink:href="#DejaVuSans-Bold-74" transform="translate(167.919922 0)"/>
     <use xlink:href="#DejaVuSans-Bold-61" transform="translate(215.722656 0)"/>
     <use xlink:href="#DejaVuSans-Bold-6c" transform="translate(283.203125 0)"/>
     <use xlink:href="#DejaVuSans-Bold-6c" transform="translate(317.480469 0)"/>
     <use xlink:href="#DejaVuSans-Bold-61" transform="translate(351.757812 0)"/>
     <use xlink:href="#DejaVuSans-Bold-74" transform="translate(419.238281 0)"/>
     <use xlink:href="#DejaVuSans-Bold-69" transform="translate(467.041016 0)"/>
     <use xlink:href="#DejaVuSans-Bold-6f" transform="translate(501.318359 0)"/>
     <use xlink:href="#DejaVuSans-Bold-6e" transform="translate(570.019531 0)"/>
     <use xlink:href="#DejaVuSans-Bold-20" transform="translate(641.210938 0)"/>
     <use xlink:href="#DejaVuSans-Bold-72" transform="translate(676.025391 0)"/>
     <use xlink:href="#DejaVuSans-Bold-65" transform="translate(725.341797 0)"/>
     <use xlink:href="#DejaVuSans-Bold-71" transform="translate(793.164062 0)"/>
     <use xlink:href="#DejaVuSans-Bold-75" transform="translate(864.746094 0)"/>
     <use xlink:href="#DejaVuSans-Bold-69" transform="translate(935.9375 0)"/>
     <use xlink:href="#DejaVuSans-Bold-72" transform="translate(970.214844 0)"/>
     <use xlink:href="#DejaVuSans-Bold-65" transform="translate(1019.53125 0)"/>
     <use xlink:href="#DejaVuSans-Bold-6d" transform="translate(1087.353516 0)"/>
     <use xlink:href="#DejaVuSans-Bold-65" transform="translate(1191.552734 0)"/>
     <use xlink:href="#DejaVuSans-Bold-6e" transform="translate(1259.375 0)"/>
     <use xlink:href="#DejaVuSans-Bold-74" transform="translate(1330.566406 0)"/>
     <use xlink:href="#DejaVuSans-Bold-73" transform="translate(1378.369141 0)"/>
    </g>
   </g>
   <g id="text_15">
    <!-- Use a regulated/current-limited 5 V host supply. Rev B2 has no on-board PPTC and no input TVS. -->
    <g transform="translate(80.91 361.368719) scale(0.077 -0.077)">
     <defs>
      <path id="DejaVuSans-73" d="M 2834 3397 
L 2834 2853 
Q 2591 2978 2328 3040 
Q 2066 3103 1784 3103 
Q 1356 3103 1142 2972 
Q 928 2841 928 2578 
Q 928 2378 1081 2264 
Q 1234 2150 1697 2047 
L 1894 2003 
Q 2506 1872 2764 1633 
Q 3022 1394 3022 966 
Q 3022 478 2636 193 
Q 2250 -91 1575 -91 
Q 1294 -91 989 -36 
Q 684 19 347 128 
L 347 722 
Q 666 556 975 473 
Q 1284 391 1588 391 
Q 1994 391 2212 530 
Q 2431 669 2431 922 
Q 2431 1156 2273 1281 
Q 2116 1406 1581 1522 
L 1381 1569 
Q 847 1681 609 1914 
Q 372 2147 372 2553 
Q 372 3047 722 3315 
Q 1072 3584 1716 3584 
Q 2034 3584 2315 3537 
Q 2597 3491 2834 3397 
z
" transform="scale(0.015625)"/>
      <path id="DejaVuSans-65" d="M 3597 1894 
L 3597 1613 
L 953 1613 
Q 991 1019 1311 708 
Q 1631 397 2203 397 
Q 2534 397 2845 478 
Q 3156 559 3463 722 
L 3463 178 
Q 3153 47 2828 -22 
Q 2503 -91 2169 -91 
Q 1331 -91 842 396 
Q 353 884 353 1716 
Q 353 2575 817 3079 
Q 1281 3584 2069 3584 
Q 2775 3584 3186 3129 
Q 3597 2675 3597 1894 
z
M 3022 2063 
Q 3016 2534 2758 2815 
Q 2500 3097 2075 3097 
Q 1594 3097 1305 2825 
Q 1016 2553 972 2059 
L 3022 2063 
z
" transform="scale(0.015625)"/>
      <path id="DejaVuSans-61" d="M 2194 1759 
Q 1497 1759 1228 1600 
Q 959 1441 959 1056 
Q 959 750 1161 570 
Q 1363 391 1709 391 
Q 2188 391 2477 730 
Q 2766 1069 2766 1631 
L 2766 1759 
L 2194 1759 
z
M 3341 1997 
L 3341 0 
L 2766 0 
L 2766 531 
Q 2569 213 2275 61 
Q 1981 -91 1556 -91 
Q 1019 -91 701 211 
Q 384 513 384 1019 
Q 384 1609 779 1909 
Q 1175 2209 1959 2209 
L 2766 2209 
L 2766 2266 
Q 2766 2663 2505 2880 
Q 2244 3097 1772 3097 
Q 1472 3097 1187 3025 
Q 903 2953 641 2809 
L 641 3341 
Q 956 3463 1253 3523 
Q 1550 3584 1831 3584 
Q 2591 3584 2966 3190 
Q 3341 2797 3341 1997 
z
" transform="scale(0.015625)"/>
      <path id="DejaVuSans-72" d="M 2631 2963 
Q 2534 3019 2420 3045 
Q 2306 3072 2169 3072 
Q 1681 3072 1420 2755 
Q 1159 2438 1159 1844 
L 1159 0 
L 581 0 
L 581 3500 
L 1159 3500 
L 1159 2956 
Q 1341 3275 1631 3429 
Q 1922 3584 2338 3584 
Q 2397 3584 2469 3576 
Q 2541 3569 2628 3553 
L 2631 2963 
z
" transform="scale(0.015625)"/>
      <path id="DejaVuSans-67" d="M 2906 1791 
Q 2906 2416 2648 2759 
Q 2391 3103 1925 3103 
Q 1463 3103 1205 2759 
Q 947 2416 947 1791 
Q 947 1169 1205 825 
Q 1463 481 1925 481 
Q 2391 481 2648 825 
Q 2906 1169 2906 1791 
z
M 3481 434 
Q 3481 -459 3084 -895 
Q 2688 -1331 1869 -1331 
Q 1566 -1331 1297 -1286 
Q 1028 -1241 775 -1147 
L 775 -588 
Q 1028 -725 1275 -790 
Q 1522 -856 1778 -856 
Q 2344 -856 2625 -561 
Q 2906 -266 2906 331 
L 2906 616 
Q 2728 306 2450 153 
Q 2172 0 1784 0 
Q 1141 0 747 490 
Q 353 981 353 1791 
Q 353 2603 747 3093 
Q 1141 3584 1784 3584 
Q 2172 3584 2450 3431 
Q 2728 3278 2906 2969 
L 2906 3500 
L 3481 3500 
L 3481 434 
z
" transform="scale(0.015625)"/>
      <path id="DejaVuSans-75" d="M 544 1381 
L 544 3500 
L 1119 3500 
L 1119 1403 
Q 1119 906 1312 657 
Q 1506 409 1894 409 
Q 2359 409 2629 706 
Q 2900 1003 2900 1516 
L 2900 3500 
L 3475 3500 
L 3475 0 
L 2900 0 
L 2900 538 
Q 2691 219 2414 64 
Q 2138 -91 1772 -91 
Q 1169 -91 856 284 
Q 544 659 544 1381 
z
M 1991 3584 
L 1991 3584 
z
" transform="scale(0.015625)"/>
      <path id="DejaVuSans-6c" d="M 603 4863 
L 1178 4863 
L 1178 0 
L 603 0 
L 603 4863 
z
" transform="scale(0.015625)"/>
      <path id="DejaVuSans-74" d="M 1172 4494 
L 1172 3500 
L 2356 3500 
L 2356 3053 
L 1172 3053 
L 1172 1153 
Q 1172 725 1289 603 
Q 1406 481 1766 481 
L 2356 481 
L 2356 0 
L 1766 0 
Q 1100 0 847 248 
Q 594 497 594 1153 
L 594 3053 
L 172 3053 
L 172 3500 
L 594 3500 
L 594 4494 
L 1172 4494 
z
" transform="scale(0.015625)"/>
      <path id="DejaVuSans-64" d="M 2906 2969 
L 2906 4863 
L 3481 4863 
L 3481 0 
L 2906 0 
L 2906 525 
Q 2725 213 2448 61 
Q 2172 -91 1784 -91 
Q 1150 -91 751 415 
Q 353 922 353 1747 
Q 353 2572 751 3078 
Q 1150 3584 1784 3584 
Q 2172 3584 2448 3432 
Q 2725 3281 2906 2969 
z
M 947 1747 
Q 947 1113 1208 752 
Q 1469 391 1925 391 
Q 2381 391 2643 752 
Q 2906 1113 2906 1747 
Q 2906 2381 2643 2742 
Q 2381 3103 1925 3103 
Q 1469 3103 1208 2742 
Q 947 2381 947 1747 
z
" transform="scale(0.015625)"/>
      <path id="DejaVuSans-63" d="M 3122 3366 
L 3122 2828 
Q 2878 2963 2633 3030 
Q 2388 3097 2138 3097 
Q 1578 3097 1268 2742 
Q 959 2388 959 1747 
Q 959 1106 1268 751 
Q 1578 397 2138 397 
Q 2388 397 2633 464 
Q 2878 531 3122 666 
L 3122 134 
Q 2881 22 2623 -34 
Q 2366 -91 2075 -91 
Q 1284 -91 818 406 
Q 353 903 353 1747 
Q 353 2603 823 3093 
Q 1294 3584 2113 3584 
Q 2378 3584 2631 3529 
Q 2884 3475 3122 3366 
z
" transform="scale(0.015625)"/>
      <path id="DejaVuSans-6e" d="M 3513 2113 
L 3513 0 
L 2938 0 
L 2938 2094 
Q 2938 2591 2744 2837 
Q 2550 3084 2163 3084 
Q 1697 3084 1428 2787 
Q 1159 2491 1159 1978 
L 1159 0 
L 581 0 
L 581 3500 
L 1159 3500 
L 1159 2956 
Q 1366 3272 1645 3428 
Q 1925 3584 2291 3584 
Q 2894 3584 3203 3211 
Q 3513 2838 3513 2113 
z
" transform="scale(0.015625)"/>
      <path id="DejaVuSans-2d" d="M 313 2009 
L 1997 2009 
L 1997 1497 
L 313 1497 
L 313 2009 
z
" transform="scale(0.015625)"/>
      <path id="DejaVuSans-69" d="M 603 3500 
L 1178 3500 
L 1178 0 
L 603 0 
L 603 3500 
z
M 603 4863 
L 1178 4863 
L 1178 4134 
L 603 4134 
L 603 4863 
z
" transform="scale(0.015625)"/>
      <path id="DejaVuSans-6d" d="M 3328 2828 
Q 3544 3216 3844 3400 
Q 4144 3584 4550 3584 
Q 5097 3584 5394 3201 
Q 5691 2819 5691 2113 
L 5691 0 
L 5113 0 
L 5113 2094 
Q 5113 2597 4934 2840 
Q 4756 3084 4391 3084 
Q 3944 3084 3684 2787 
Q 3425 2491 3425 1978 
L 3425 0 
L 2847 0 
L 2847 2094 
Q 2847 2600 2669 2842 
Q 2491 3084 2119 3084 
Q 1678 3084 1418 2786 
Q 1159 2488 1159 1978 
L 1159 0 
L 581 0 
L 581 3500 
L 1159 3500 
L 1159 2956 
Q 1356 3278 1631 3431 
Q 1906 3584 2284 3584 
Q 2666 3584 2933 3390 
Q 3200 3197 3328 2828 
z
" transform="scale(0.015625)"/>
      <path id="DejaVuSans-68" d="M 3513 2113 
L 3513 0 
L 2938 0 
L 2938 2094 
Q 2938 2591 2744 2837 
Q 2550 3084 2163 3084 
Q 1697 3084 1428 2787 
Q 1159 2491 1159 1978 
L 1159 0 
L 581 0 
L 581 4863 
L 1159 4863 
L 1159 2956 
Q 1366 3272 1645 3428 
Q 1925 3584 2291 3584 
Q 2894 3584 3203 3211 
Q 3513 2838 3513 2113 
z
" transform="scale(0.015625)"/>
      <path id="DejaVuSans-6f" d="M 1959 3097 
Q 1497 3097 1228 2736 
Q 959 2375 959 1747 
Q 959 1119 1226 758 
Q 1494 397 1959 397 
Q 2419 397 2687 759 
Q 2956 1122 2956 1747 
Q 2956 2369 2687 2733 
Q 2419 3097 1959 3097 
z
M 1959 3584 
Q 2709 3584 3137 3096 
Q 3566 2609 3566 1747 
Q 3566 888 3137 398 
Q 2709 -91 1959 -91 
Q 1206 -91 779 398 
Q 353 888 353 1747 
Q 353 2609 779 3096 
Q 1206 3584 1959 3584 
z
" transform="scale(0.015625)"/>
      <path id="DejaVuSans-70" d="M 1159 525 
L 1159 -1331 
L 581 -1331 
L 581 3500 
L 1159 3500 
L 1159 2969 
Q 1341 3281 1617 3432 
Q 1894 3584 2278 3584 
Q 2916 3584 3314 3078 
Q 3713 2572 3713 1747 
Q 3713 922 3314 415 
Q 2916 -91 2278 -91 
Q 1894 -91 1617 61 
Q 1341 213 1159 525 
z
M 3116 1747 
Q 3116 2381 2855 2742 
Q 2594 3103 2138 3103 
Q 1681 3103 1420 2742 
Q 1159 2381 1159 1747 
Q 1159 1113 1420 752 
Q 1681 391 2138 391 
Q 2594 391 2855 752 
Q 3116 1113 3116 1747 
z
" transform="scale(0.015625)"/>
      <path id="DejaVuSans-79" d="M 2059 -325 
Q 1816 -950 1584 -1140 
Q 1353 -1331 966 -1331 
L 506 -1331 
L 506 -850 
L 844 -850 
Q 1081 -850 1212 -737 
Q 1344 -625 1503 -206 
L 1606 56 
L 191 3500 
L 800 3500 
L 1894 763 
L 2988 3500 
L 3597 3500 
L 2059 -325 
z
" transform="scale(0.015625)"/>
      <path id="DejaVuSans-2e" d="M 684 794 
L 1344 794 
L 1344 0 
L 684 0 
L 684 794 
z
" transform="scale(0.015625)"/>
      <path id="DejaVuSans-76" d="M 191 3500 
L 800 3500 
L 1894 563 
L 2988 3500 
L 3597 3500 
L 2284 0 
L 1503 0 
L 191 3500 
z
" transform="scale(0.015625)"/>
      <path id="DejaVuSans-62" d="M 3116 1747 
Q 3116 2381 2855 2742 
Q 2594 3103 2138 3103 
Q 1681 3103 1420 2742 
Q 1159 2381 1159 1747 
Q 1159 1113 1420 752 
Q 1681 391 2138 391 
Q 2594 391 2855 752 
Q 3116 1113 3116 1747 
z
M 1159 2969 
Q 1341 3281 1617 3432 
Q 1894 3584 2278 3584 
Q 2916 3584 3314 3078 
Q 3713 2572 3713 1747 
Q 3713 922 3314 415 
Q 2916 -91 2278 -91 
Q 1894 -91 1617 61 
Q 1341 213 1159 525 
L 1159 0 
L 581 0 
L 581 4863 
L 1159 4863 
L 1159 2969 
z
" transform="scale(0.015625)"/>
     </defs>
     <use xlink:href="#DejaVuSans-55"/>
     <use xlink:href="#DejaVuSans-73" transform="translate(73.193359 0)"/>
     <use xlink:href="#DejaVuSans-65" transform="translate(125.292969 0)"/>
     <use xlink:href="#DejaVuSans-20" transform="translate(186.816406 0)"/>
     <use xlink:href="#DejaVuSans-61" transform="translate(218.603516 0)"/>
     <use xlink:href="#DejaVuSans-20" transform="translate(279.882812 0)"/>
     <use xlink:href="#DejaVuSans-72" transform="translate(311.669922 0)"/>
     <use xlink:href="#DejaVuSans-65" transform="translate(350.533203 0)"/>
     <use xlink:href="#DejaVuSans-67" transform="translate(412.056641 0)"/>
     <use xlink:href="#DejaVuSans-75" transform="translate(475.533203 0)"/>
     <use xlink:href="#DejaVuSans-6c" transform="translate(538.912109 0)"/>
     <use xlink:href="#DejaVuSans-61" transform="translate(566.695312 0)"/>
     <use xlink:href="#DejaVuSans-74" transform="translate(627.974609 0)"/>
     <use xlink:href="#DejaVuSans-65" transform="translate(667.183594 0)"/>
     <use xlink:href="#DejaVuSans-64" transform="translate(728.707031 0)"/>
     <use xlink:href="#DejaVuSans-2f" transform="translate(792.183594 0)"/>
     <use xlink:href="#DejaVuSans-63" transform="translate(825.875 0)"/>
     <use xlink:href="#DejaVuSans-75" transform="translate(880.855469 0)"/>
     <use xlink:href="#DejaVuSans-72" transform="translate(944.234375 0)"/>
     <use xlink:href="#DejaVuSans-72" transform="translate(983.597656 0)"/>
     <use xlink:href="#DejaVuSans-65" transform="translate(1022.460938 0)"/>
     <use xlink:href="#DejaVuSans-6e" transform="translate(1083.984375 0)"/>
     <use xlink:href="#DejaVuSans-74" transform="translate(1147.363281 0)"/>
     <use xlink:href="#DejaVuSans-2d" transform="translate(1186.572266 0)"/>
     <use xlink:href="#DejaVuSans-6c" transform="translate(1222.65625 0)"/>
     <use xlink:href="#DejaVuSans-69" transform="translate(1250.439453 0)"/>
     <use xlink:href="#DejaVuSans-6d" transform="translate(1278.222656 0)"/>
     <use xlink:href="#DejaVuSans-69" transform="translate(1375.634766 0)"/>
     <use xlink:href="#DejaVuSans-74" transform="translate(1403.417969 0)"/>
     <use xlink:href="#DejaVuSans-65" transform="translate(1442.626953 0)"/>
     <use xlink:href="#DejaVuSans-64" transform="translate(1504.150391 0)"/>
     <use xlink:href="#DejaVuSans-20" transform="translate(1567.626953 0)"/>
     <use xlink:href="#DejaVuSans-35" transform="translate(1599.414062 0)"/>
     <use xlink:href="#DejaVuSans-20" transform="translate(1663.037109 0)"/>
     <use xlink:href="#DejaVuSans-56" transform="translate(1694.824219 0)"/>
     <use xlink:href="#DejaVuSans-20" transform="translate(1763.232422 0)"/>
     <use xlink:href="#DejaVuSans-68" transform="translate(1795.019531 0)"/>
     <use xlink:href="#DejaVuSans-6f" transform="translate(1858.398438 0)"/>
     <use xlink:href="#DejaVuSans-73" transform="translate(1919.580078 0)"/>
     <use xlink:href="#DejaVuSans-74" transform="translate(1971.679688 0)"/>
     <use xlink:href="#DejaVuSans-20" transform="translate(2010.888672 0)"/>
     <use xlink:href="#DejaVuSans-73" transform="translate(2042.675781 0)"/>
     <use xlink:href="#DejaVuSans-75" transform="translate(2094.775391 0)"/>
     <use xlink:href="#DejaVuSans-70" transform="translate(2158.154297 0)"/>
     <use xlink:href="#DejaVuSans-70" transform="translate(2221.630859 0)"/>
     <use xlink:href="#DejaVuSans-6c" transform="translate(2285.107422 0)"/>
     <use xlink:href="#DejaVuSans-79" transform="translate(2312.890625 0)"/>
     <use xlink:href="#DejaVuSans-2e" transform="translate(2357.820312 0)"/>
     <use xlink:href="#DejaVuSans-20" transform="translate(2389.607422 0)"/>
     <use xlink:href="#DejaVuSans-52" transform="translate(2421.394531 0)"/>
     <use xlink:href="#DejaVuSans-65" transform="translate(2486.376953 0)"/>
     <use xlink:href="#DejaVuSans-76" transform="translate(2547.900391 0)"/>
     <use xlink:href="#DejaVuSans-20" transform="translate(2607.080078 0)"/>
     <use xlink:href="#DejaVuSans-42" transform="translate(2638.867188 0)"/>
     <use xlink:href="#DejaVuSans-32" transform="translate(2707.470703 0)"/>
     <use xlink:href="#DejaVuSans-20" transform="translate(2771.09375 0)"/>
     <use xlink:href="#DejaVuSans-68" transform="translate(2802.880859 0)"/>
     <use xlink:href="#DejaVuSans-61" transform="translate(2866.259766 0)"/>
     <use xlink:href="#DejaVuSans-73" transform="translate(2927.539062 0)"/>
     <use xlink:href="#DejaVuSans-20" transform="translate(2979.638672 0)"/>
     <use xlink:href="#DejaVuSans-6e" transform="translate(3011.425781 0)"/>
     <use xlink:href="#DejaVuSans-6f" transform="translate(3074.804688 0)"/>
     <use xlink:href="#DejaVuSans-20" transform="translate(3135.986328 0)"/>
     <use xlink:href="#DejaVuSans-6f" transform="translate(3167.773438 0)"/>
     <use xlink:href="#DejaVuSans-6e" transform="translate(3228.955078 0)"/>
     <use xlink:href="#DejaVuSans-2d" transform="translate(3292.333984 0)"/>
     <use xlink:href="#DejaVuSans-62" transform="translate(3328.417969 0)"/>
     <use xlink:href="#DejaVuSans-6f" transform="translate(3391.894531 0)"/>
     <use xlink:href="#DejaVuSans-61" transform="translate(3453.076172 0)"/>
     <use xlink:href="#DejaVuSans-72" transform="translate(3514.355469 0)"/>
     <use xlink:href="#DejaVuSans-64" transform="translate(3553.71875 0)"/>
     <use xlink:href="#DejaVuSans-20" transform="translate(3617.195312 0)"/>
     <use xlink:href="#DejaVuSans-50" transform="translate(3648.982422 0)"/>
     <use xlink:href="#DejaVuSans-50" transform="translate(3709.285156 0)"/>
     <use xlink:href="#DejaVuSans-54" transform="translate(3769.587891 0)"/>
     <use xlink:href="#DejaVuSans-43" transform="translate(3824.796875 0)"/>
     <use xlink:href="#DejaVuSans-20" transform="translate(3894.621094 0)"/>
     <use xlink:href="#DejaVuSans-61" transform="translate(3926.408203 0)"/>
     <use xlink:href="#DejaVuSans-6e" transform="translate(3987.6875 0)"/>
     <use xlink:href="#DejaVuSans-64" transform="translate(4051.066406 0)"/>
     <use xlink:href="#DejaVuSans-20" transform="translate(4114.542969 0)"/>
     <use xlink:href="#DejaVuSans-6e" transform="translate(4146.330078 0)"/>
     <use xlink:href="#DejaVuSans-6f" transform="translate(4209.708984 0)"/>
     <use xlink:href="#DejaVuSans-20" transform="translate(4270.890625 0)"/>
     <use xlink:href="#DejaVuSans-69" transform="translate(4302.677734 0)"/>
     <use xlink:href="#DejaVuSans-6e" transform="translate(4330.460938 0)"/>
     <use xlink:href="#DejaVuSans-70" transform="translate(4393.839844 0)"/>
     <use xlink:href="#DejaVuSans-75" transform="translate(4457.316406 0)"/>
     <use xlink:href="#DejaVuSans-74" transform="translate(4520.695312 0)"/>
     <use xlink:href="#DejaVuSans-20" transform="translate(4559.904297 0)"/>
     <use xlink:href="#DejaVuSans-54" transform="translate(4591.691406 0)"/>
     <use xlink:href="#DejaVuSans-56" transform="translate(4652.775391 0)"/>
     <use xlink:href="#DejaVuSans-53" transform="translate(4721.183594 0)"/>
     <use xlink:href="#DejaVuSans-2e" transform="translate(4784.660156 0)"/>
    </g>
   </g>
   <g id="text_16">
    <!-- Do not connect GND_HOST to GND_ISO. The sensor must be powered from J2 pin 1 and J2 pin 3. -->
    <g transform="translate(80.91 390.367641) scale(0.077 -0.077)">
     <defs>
      <path id="DejaVuSans-77" d="M 269 3500 
L 844 3500 
L 1563 769 
L 2278 3500 
L 2956 3500 
L 3675 769 
L 4391 3500 
L 4966 3500 
L 4050 0 
L 3372 0 
L 2619 2869 
L 1863 0 
L 1184 0 
L 269 3500 
z
" transform="scale(0.015625)"/>
      <path id="DejaVuSans-66" d="M 2375 4863 
L 2375 4384 
L 1825 4384 
Q 1516 4384 1395 4259 
Q 1275 4134 1275 3809 
L 1275 3500 
L 2222 3500 
L 2222 3053 
L 1275 3053 
L 1275 0 
L 697 0 
L 697 3053 
L 147 3053 
L 147 3500 
L 697 3500 
L 697 3744 
Q 697 4328 969 4595 
Q 1241 4863 1831 4863 
L 2375 4863 
z
" transform="scale(0.015625)"/>
      <path id="DejaVuSans-4a" d="M 628 4666 
L 1259 4666 
L 1259 325 
Q 1259 -519 939 -900 
Q 619 -1281 -91 -1281 
L -331 -1281 
L -331 -750 
L -134 -750 
Q 284 -750 456 -515 
Q 628 -281 628 325 
L 628 4666 
z
" transform="scale(0.015625)"/>
     </defs>
     <use xlink:href="#DejaVuSans-44"/>
     <use xlink:href="#DejaVuSans-6f" transform="translate(77.001953 0)"/>
     <use xlink:href="#DejaVuSans-20" transform="translate(138.183594 0)"/>
     <use xlink:href="#DejaVuSans-6e" transform="translate(169.970703 0)"/>
     <use xlink:href="#DejaVuSans-6f" transform="translate(233.349609 0)"/>
     <use xlink:href="#DejaVuSans-74" transform="translate(294.53125 0)"/>
     <use xlink:href="#DejaVuSans-20" transform="translate(333.740234 0)"/>
     <use xlink:href="#DejaVuSans-63" transform="translate(365.527344 0)"/>
     <use xlink:href="#DejaVuSans-6f" transform="translate(420.507812 0)"/>
     <use xlink:href="#DejaVuSans-6e" transform="translate(481.689453 0)"/>
     <use xlink:href="#DejaVuSans-6e" transform="translate(545.068359 0)"/>
     <use xlink:href="#DejaVuSans-65" transform="translate(608.447266 0)"/>
     <use xlink:href="#DejaVuSans-63" transform="translate(669.970703 0)"/>
     <use xlink:href="#DejaVuSans-74" transform="translate(724.951172 0)"/>
     <use xlink:href="#DejaVuSans-20" transform="translate(764.160156 0)"/>
     <use xlink:href="#DejaVuSans-47" transform="translate(795.947266 0)"/>
     <use xlink:href="#DejaVuSans-4e" transform="translate(873.4375 0)"/>
     <use xlink:href="#DejaVuSans-44" transform="translate(948.242188 0)"/>
     <use xlink:href="#DejaVuSans-5f" transform="translate(1025.244141 0)"/>
     <use xlink:href="#DejaVuSans-48" transform="translate(1075.244141 0)"/>
     <use xlink:href="#DejaVuSans-4f" transform="translate(1150.439453 0)"/>
     <use xlink:href="#DejaVuSans-53" transform="translate(1229.150391 0)"/>
     <use xlink:href="#DejaVuSans-54" transform="translate(1292.626953 0)"/>
     <use xlink:href="#DejaVuSans-20" transform="translate(1353.710938 0)"/>
     <use xlink:href="#DejaVuSans-74" transform="translate(1385.498047 0)"/>
     <use xlink:href="#DejaVuSans-6f" transform="translate(1424.707031 0)"/>
     <use xlink:href="#DejaVuSans-20" transform="translate(1485.888672 0)"/>
     <use xlink:href="#DejaVuSans-47" transform="translate(1517.675781 0)"/>
     <use xlink:href="#DejaVuSans-4e" transform="translate(1595.166016 0)"/>
     <use xlink:href="#DejaVuSans-44" transform="translate(1669.970703 0)"/>
     <use xlink:href="#DejaVuSans-5f" transform="translate(1746.972656 0)"/>
     <use xlink:href="#DejaVuSans-49" transform="translate(1796.972656 0)"/>
     <use xlink:href="#DejaVuSans-53" transform="translate(1826.464844 0)"/>
     <use xlink:href="#DejaVuSans-4f" transform="translate(1889.941406 0)"/>
     <use xlink:href="#DejaVuSans-2e" transform="translate(1964.652344 0)"/>
     <use xlink:href="#DejaVuSans-20" transform="translate(1996.439453 0)"/>
     <use xlink:href="#DejaVuSans-54" transform="translate(2028.226562 0)"/>
     <use xlink:href="#DejaVuSans-68" transform="translate(2089.310547 0)"/>
     <use xlink:href="#DejaVuSans-65" transform="translate(2152.689453 0)"/>
     <use xlink:href="#DejaVuSans-20" transform="translate(2214.212891 0)"/>
     <use xlink:href="#DejaVuSans-73" transform="translate(2246 0)"/>
     <use xlink:href="#DejaVuSans-65" transform="translate(2298.099609 0)"/>
     <use xlink:href="#DejaVuSans-6e" transform="translate(2359.623047 0)"/>
     <use xlink:href="#DejaVuSans-73" transform="translate(2423.001953 0)"/>
     <use xlink:href="#DejaVuSans-6f" transform="translate(2475.101562 0)"/>
     <use xlink:href="#DejaVuSans-72" transform="translate(2536.283203 0)"/>
     <use xlink:href="#DejaVuSans-20" transform="translate(2577.396484 0)"/>
     <use xlink:href="#DejaVuSans-6d" transform="translate(2609.183594 0)"/>
     <use xlink:href="#DejaVuSans-75" transform="translate(2706.595703 0)"/>
     <use xlink:href="#DejaVuSans-73" transform="translate(2769.974609 0)"/>
     <use xlink:href="#DejaVuSans-74" transform="translate(2822.074219 0)"/>
     <use xlink:href="#DejaVuSans-20" transform="translate(2861.283203 0)"/>
     <use xlink:href="#DejaVuSans-62" transform="translate(2893.070312 0)"/>
     <use xlink:href="#DejaVuSans-65" transform="translate(2956.546875 0)"/>
     <use xlink:href="#DejaVuSans-20" transform="translate(3018.070312 0)"/>
     <use xlink:href="#DejaVuSans-70" transform="translate(3049.857422 0)"/>
     <use xlink:href="#DejaVuSans-6f" transform="translate(3113.333984 0)"/>
     <use xlink:href="#DejaVuSans-77" transform="translate(3174.515625 0)"/>
     <use xlink:href="#DejaVuSans-65" transform="translate(3256.302734 0)"/>
     <use xlink:href="#DejaVuSans-72" transform="translate(3317.826172 0)"/>
     <use xlink:href="#DejaVuSans-65" transform="translate(3356.689453 0)"/>
     <use xlink:href="#DejaVuSans-64" transform="translate(3418.212891 0)"/>
     <use xlink:href="#DejaVuSans-20" transform="translate(3481.689453 0)"/>
     <use xlink:href="#DejaVuSans-66" transform="translate(3513.476562 0)"/>
     <use xlink:href="#DejaVuSans-72" transform="translate(3548.681641 0)"/>
     <use xlink:href="#DejaVuSans-6f" transform="translate(3587.544922 0)"/>
     <use xlink:href="#DejaVuSans-6d" transform="translate(3648.726562 0)"/>
     <use xlink:href="#DejaVuSans-20" transform="translate(3746.138672 0)"/>
     <use xlink:href="#DejaVuSans-4a" transform="translate(3777.925781 0)"/>
     <use xlink:href="#DejaVuSans-32" transform="translate(3807.417969 0)"/>
     <use xlink:href="#DejaVuSans-20" transform="translate(3871.041016 0)"/>
     <use xlink:href="#DejaVuSans-70" transform="translate(3902.828125 0)"/>
     <use xlink:href="#DejaVuSans-69" transform="translate(3966.304688 0)"/>
     <use xlink:href="#DejaVuSans-6e" transform="translate(3994.087891 0)"/>
     <use xlink:href="#DejaVuSans-20" transform="translate(4057.466797 0)"/>
     <use xlink:href="#DejaVuSans-31" transform="translate(4089.253906 0)"/>
     <use xlink:href="#DejaVuSans-20" transform="translate(4152.876953 0)"/>
     <use xlink:href="#DejaVuSans-61" transform="translate(4184.664062 0)"/>
     <use xlink:href="#DejaVuSans-6e" transform="translate(4245.943359 0)"/>
     <use xlink:href="#DejaVuSans-64" transform="translate(4309.322266 0)"/>
     <use xlink:href="#DejaVuSans-20" transform="translate(4372.798828 0)"/>
     <use xlink:href="#DejaVuSans-4a" transform="translate(4404.585938 0)"/>
     <use xlink:href="#DejaVuSans-32" transform="translate(4434.078125 0)"/>
     <use xlink:href="#DejaVuSans-20" transform="translate(4497.701172 0)"/>
     <use xlink:href="#DejaVuSans-70" transform="translate(4529.488281 0)"/>
     <use xlink:href="#DejaVuSans-69" transform="translate(4592.964844 0)"/>
     <use xlink:href="#DejaVuSans-6e" transform="translate(4620.748047 0)"/>
     <use xlink:href="#DejaVuSans-20" transform="translate(4684.126953 0)"/>
     <use xlink:href="#DejaVuSans-33" transform="translate(4715.914062 0)"/>
     <use xlink:href="#DejaVuSans-2e" transform="translate(4779.537109 0)"/>
    </g>
   </g>
   <g id="text_17">
    <!-- Select MODE 24, MODE 33, or MODE 50 before operation. Do not modify the switch while calibrating. -->
    <g transform="translate(80.91 419.580719) scale(0.077 -0.077)">
     <defs>
      <path id="DejaVuSans-4d" d="M 628 4666 
L 1569 4666 
L 2759 1491 
L 3956 4666 
L 4897 4666 
L 4897 0 
L 4281 0 
L 4281 4097 
L 3078 897 
L 2444 897 
L 1241 4097 
L 1241 0 
L 628 0 
L 628 4666 
z
" transform="scale(0.015625)"/>
      <path id="DejaVuSans-2c" d="M 750 794 
L 1409 794 
L 1409 256 
L 897 -744 
L 494 -744 
L 750 256 
L 750 794 
z
" transform="scale(0.015625)"/>
     </defs>
     <use xlink:href="#DejaVuSans-53"/>
     <use xlink:href="#DejaVuSans-65" transform="translate(63.476562 0)"/>
     <use xlink:href="#DejaVuSans-6c" transform="translate(125 0)"/>
     <use xlink:href="#DejaVuSans-65" transform="translate(152.783203 0)"/>
     <use xlink:href="#DejaVuSans-63" transform="translate(214.306641 0)"/>
     <use xlink:href="#DejaVuSans-74" transform="translate(269.287109 0)"/>
     <use xlink:href="#DejaVuSans-20" transform="translate(308.496094 0)"/>
     <use xlink:href="#DejaVuSans-4d" transform="translate(340.283203 0)"/>
     <use xlink:href="#DejaVuSans-4f" transform="translate(426.5625 0)"/>
     <use xlink:href="#DejaVuSans-44" transform="translate(505.273438 0)"/>
     <use xlink:href="#DejaVuSans-45" transform="translate(582.275391 0)"/>
     <use xlink:href="#DejaVuSans-20" transform="translate(645.458984 0)"/>
     <use xlink:href="#DejaVuSans-32" transform="translate(677.246094 0)"/>
     <use xlink:href="#DejaVuSans-34" transform="translate(740.869141 0)"/>
     <use xlink:href="#DejaVuSans-2c" transform="translate(804.492188 0)"/>
     <use xlink:href="#DejaVuSans-20" transform="translate(836.279297 0)"/>
     <use xlink:href="#DejaVuSans-4d" transform="translate(868.066406 0)"/>
     <use xlink:href="#DejaVuSans-4f" transform="translate(954.345703 0)"/>
     <use xlink:href="#DejaVuSans-44" transform="translate(1033.056641 0)"/>
     <use xlink:href="#DejaVuSans-45" transform="translate(1110.058594 0)"/>
     <use xlink:href="#DejaVuSans-20" transform="translate(1173.242188 0)"/>
     <use xlink:href="#DejaVuSans-33" transform="translate(1205.029297 0)"/>
     <use xlink:href="#DejaVuSans-33" transform="translate(1268.652344 0)"/>
     <use xlink:href="#DejaVuSans-2c" transform="translate(1332.275391 0)"/>
     <use xlink:href="#DejaVuSans-20" transform="translate(1364.0625 0)"/>
     <use xlink:href="#DejaVuSans-6f" transform="translate(1395.849609 0)"/>
     <use xlink:href="#DejaVuSans-72" transform="translate(1457.03125 0)"/>
     <use xlink:href="#DejaVuSans-20" transform="translate(1498.144531 0)"/>
     <use xlink:href="#DejaVuSans-4d" transform="translate(1529.931641 0)"/>
     <use xlink:href="#DejaVuSans-4f" transform="translate(1616.210938 0)"/>
     <use xlink:href="#DejaVuSans-44" transform="translate(1694.921875 0)"/>
     <use xlink:href="#DejaVuSans-45" transform="translate(1771.923828 0)"/>
     <use xlink:href="#DejaVuSans-20" transform="translate(1835.107422 0)"/>
     <use xlink:href="#DejaVuSans-35" transform="translate(1866.894531 0)"/>
     <use xlink:href="#DejaVuSans-30" transform="translate(1930.517578 0)"/>
     <use xlink:href="#DejaVuSans-20" transform="translate(1994.140625 0)"/>
     <use xlink:href="#DejaVuSans-62" transform="translate(2025.927734 0)"/>
     <use xlink:href="#DejaVuSans-65" transform="translate(2089.404297 0)"/>
     <use xlink:href="#DejaVuSans-66" transform="translate(2150.927734 0)"/>
     <use xlink:href="#DejaVuSans-6f" transform="translate(2186.132812 0)"/>
     <use xlink:href="#DejaVuSans-72" transform="translate(2247.314453 0)"/>
     <use xlink:href="#DejaVuSans-65" transform="translate(2286.177734 0)"/>
     <use xlink:href="#DejaVuSans-20" transform="translate(2347.701172 0)"/>
     <use xlink:href="#DejaVuSans-6f" transform="translate(2379.488281 0)"/>
     <use xlink:href="#DejaVuSans-70" transform="translate(2440.669922 0)"/>
     <use xlink:href="#DejaVuSans-65" transform="translate(2504.146484 0)"/>
     <use xlink:href="#DejaVuSans-72" transform="translate(2565.669922 0)"/>
     <use xlink:href="#DejaVuSans-61" transform="translate(2606.783203 0)"/>
     <use xlink:href="#DejaVuSans-74" transform="translate(2668.0625 0)"/>
     <use xlink:href="#DejaVuSans-69" transform="translate(2707.271484 0)"/>
     <use xlink:href="#DejaVuSans-6f" transform="translate(2735.054688 0)"/>
     <use xlink:href="#DejaVuSans-6e" transform="translate(2796.236328 0)"/>
     <use xlink:href="#DejaVuSans-2e" transform="translate(2859.615234 0)"/>
     <use xlink:href="#DejaVuSans-20" transform="translate(2891.402344 0)"/>
     <use xlink:href="#DejaVuSans-44" transform="translate(2923.189453 0)"/>
     <use xlink:href="#DejaVuSans-6f" transform="translate(3000.191406 0)"/>
     <use xlink:href="#DejaVuSans-20" transform="translate(3061.373047 0)"/>
     <use xlink:href="#DejaVuSans-6e" transform="translate(3093.160156 0)"/>
     <use xlink:href="#DejaVuSans-6f" transform="translate(3156.539062 0)"/>
     <use xlink:href="#DejaVuSans-74" transform="translate(3217.720703 0)"/>
     <use xlink:href="#DejaVuSans-20" transform="translate(3256.929688 0)"/>
     <use xlink:href="#DejaVuSans-6d" transform="translate(3288.716797 0)"/>
     <use xlink:href="#DejaVuSans-6f" transform="translate(3386.128906 0)"/>
     <use xlink:href="#DejaVuSans-64" transform="translate(3447.310547 0)"/>
     <use xlink:href="#DejaVuSans-69" transform="translate(3510.787109 0)"/>
     <use xlink:href="#DejaVuSans-66" transform="translate(3538.570312 0)"/>
     <use xlink:href="#DejaVuSans-79" transform="translate(3572.025391 0)"/>
     <use xlink:href="#DejaVuSans-20" transform="translate(3631.205078 0)"/>
     <use xlink:href="#DejaVuSans-74" transform="translate(3662.992188 0)"/>
     <use xlink:href="#DejaVuSans-68" transform="translate(3702.201172 0)"/>
     <use xlink:href="#DejaVuSans-65" transform="translate(3765.580078 0)"/>
     <use xlink:href="#DejaVuSans-20" transform="translate(3827.103516 0)"/>
     <use xlink:href="#DejaVuSans-73" transform="translate(3858.890625 0)"/>
     <use xlink:href="#DejaVuSans-77" transform="translate(3910.990234 0)"/>
     <use xlink:href="#DejaVuSans-69" transform="translate(3992.777344 0)"/>
     <use xlink:href="#DejaVuSans-74" transform="translate(4020.560547 0)"/>
     <use xlink:href="#DejaVuSans-63" transform="translate(4059.769531 0)"/>
     <use xlink:href="#DejaVuSans-68" transform="translate(4114.75 0)"/>
     <use xlink:href="#DejaVuSans-20" transform="translate(4178.128906 0)"/>
     <use xlink:href="#DejaVuSans-77" transform="translate(4209.916016 0)"/>
     <use xlink:href="#DejaVuSans-68" transform="translate(4291.703125 0)"/>
     <use xlink:href="#DejaVuSans-69" transform="translate(4355.082031 0)"/>
     <use xlink:href="#DejaVuSans-6c" transform="translate(4382.865234 0)"/>
     <use xlink:href="#DejaVuSans-65" transform="translate(4410.648438 0)"/>
     <use xlink:href="#DejaVuSans-20" transform="translate(4472.171875 0)"/>
     <use xlink:href="#DejaVuSans-63" transform="translate(4503.958984 0)"/>
     <use xlink:href="#DejaVuSans-61" transform="translate(4558.939453 0)"/>
     <use xlink:href="#DejaVuSans-6c" transform="translate(4620.21875 0)"/>
     <use xlink:href="#DejaVuSans-69" transform="translate(4648.001953 0)"/>
     <use xlink:href="#DejaVuSans-62" transform="translate(4675.785156 0)"/>
     <use xlink:href="#DejaVuSans-72" transform="translate(4739.261719 0)"/>
     <use xlink:href="#DejaVuSans-61" transform="translate(4780.375 0)"/>
     <use xlink:href="#DejaVuSans-74" transform="translate(4841.654297 0)"/>
     <use xlink:href="#DejaVuSans-69" transform="translate(4880.863281 0)"/>
     <use xlink:href="#DejaVuSans-6e" transform="translate(4908.646484 0)"/>
     <use xlink:href="#DejaVuSans-67" transform="translate(4972.025391 0)"/>
     <use xlink:href="#DejaVuSans-2e" transform="translate(5035.501953 0)"/>
    </g>
   </g>
   <g id="text_18">
    <!-- Host-side ADC clamp protection remains the responsibility of the host board. -->
    <g transform="translate(80.91 448.686719) scale(0.077 -0.077)">
     <use xlink:href="#DejaVuSans-48"/>
     <use xlink:href="#DejaVuSans-6f" transform="translate(75.195312 0)"/>
     <use xlink:href="#DejaVuSans-73" transform="translate(136.376953 0)"/>
     <use xlink:href="#DejaVuSans-74" transform="translate(188.476562 0)"/>
     <use xlink:href="#DejaVuSans-2d" transform="translate(227.685547 0)"/>
     <use xlink:href="#DejaVuSans-73" transform="translate(263.769531 0)"/>
     <use xlink:href="#DejaVuSans-69" transform="translate(315.869141 0)"/>
     <use xlink:href="#DejaVuSans-64" transform="translate(343.652344 0)"/>
     <use xlink:href="#DejaVuSans-65" transform="translate(407.128906 0)"/>
     <use xlink:href="#DejaVuSans-20" transform="translate(468.652344 0)"/>
     <use xlink:href="#DejaVuSans-41" transform="translate(500.439453 0)"/>
     <use xlink:href="#DejaVuSans-44" transform="translate(568.847656 0)"/>
     <use xlink:href="#DejaVuSans-43" transform="translate(645.849609 0)"/>
     <use xlink:href="#DejaVuSans-20" transform="translate(715.673828 0)"/>
     <use xlink:href="#DejaVuSans-63" transform="translate(747.460938 0)"/>
     <use xlink:href="#DejaVuSans-6c" transform="translate(802.441406 0)"/>
     <use xlink:href="#DejaVuSans-61" transform="translate(830.224609 0)"/>
     <use xlink:href="#DejaVuSans-6d" transform="translate(891.503906 0)"/>
     <use xlink:href="#DejaVuSans-70" transform="translate(988.916016 0)"/>
     <use xlink:href="#DejaVuSans-20" transform="translate(1052.392578 0)"/>
     <use xlink:href="#DejaVuSans-70" transform="translate(1084.179688 0)"/>
     <use xlink:href="#DejaVuSans-72" transform="translate(1147.65625 0)"/>
     <use xlink:href="#DejaVuSans-6f" transform="translate(1186.519531 0)"/>
     <use xlink:href="#DejaVuSans-74" transform="translate(1247.701172 0)"/>
     <use xlink:href="#DejaVuSans-65" transform="translate(1286.910156 0)"/>
     <use xlink:href="#DejaVuSans-63" transform="translate(1348.433594 0)"/>
     <use xlink:href="#DejaVuSans-74" transform="translate(1403.414062 0)"/>
     <use xlink:href="#DejaVuSans-69" transform="translate(1442.623047 0)"/>
     <use xlink:href="#DejaVuSans-6f" transform="translate(1470.40625 0)"/>
     <use xlink:href="#DejaVuSans-6e" transform="translate(1531.587891 0)"/>
     <use xlink:href="#DejaVuSans-20" transform="translate(1594.966797 0)"/>
     <use xlink:href="#DejaVuSans-72" transform="translate(1626.753906 0)"/>
     <use xlink:href="#DejaVuSans-65" transform="translate(1665.617188 0)"/>
     <use xlink:href="#DejaVuSans-6d" transform="translate(1727.140625 0)"/>
     <use xlink:href="#DejaVuSans-61" transform="translate(1824.552734 0)"/>
     <use xlink:href="#DejaVuSans-69" transform="translate(1885.832031 0)"/>
     <use xlink:href="#DejaVuSans-6e" transform="translate(1913.615234 0)"/>
     <use xlink:href="#DejaVuSans-73" transform="translate(1976.994141 0)"/>
     <use xlink:href="#DejaVuSans-20" transform="translate(2029.09375 0)"/>
     <use xlink:href="#DejaVuSans-74" transform="translate(2060.880859 0)"/>
     <use xlink:href="#DejaVuSans-68" transform="translate(2100.089844 0)"/>
     <use xlink:href="#DejaVuSans-65" transform="translate(2163.46875 0)"/>
     <use xlink:href="#DejaVuSans-20" transform="translate(2224.992188 0)"/>
     <use xlink:href="#DejaVuSans-72" transform="translate(2256.779297 0)"/>
     <use xlink:href="#DejaVuSans-65" transform="translate(2295.642578 0)"/>
     <use xlink:href="#DejaVuSans-73" transform="translate(2357.166016 0)"/>
     <use xlink:href="#DejaVuSans-70" transform="translate(2409.265625 0)"/>
     <use xlink:href="#DejaVuSans-6f" transform="translate(2472.742188 0)"/>
     <use xlink:href="#DejaVuSans-6e" transform="translate(2533.923828 0)"/>
     <use xlink:href="#DejaVuSans-73" transform="translate(2597.302734 0)"/>
     <use xlink:href="#DejaVuSans-69" transform="translate(2649.402344 0)"/>
     <use xlink:href="#DejaVuSans-62" transform="translate(2677.185547 0)"/>
     <use xlink:href="#DejaVuSans-69" transform="translate(2740.662109 0)"/>
     <use xlink:href="#DejaVuSans-6c" transform="translate(2768.445312 0)"/>
     <use xlink:href="#DejaVuSans-69" transform="translate(2796.228516 0)"/>
     <use xlink:href="#DejaVuSans-74" transform="translate(2824.011719 0)"/>
     <use xlink:href="#DejaVuSans-79" transform="translate(2863.220703 0)"/>
     <use xlink:href="#DejaVuSans-20" transform="translate(2922.400391 0)"/>
     <use xlink:href="#DejaVuSans-6f" transform="translate(2954.1875 0)"/>
     <use xlink:href="#DejaVuSans-66" transform="translate(3015.369141 0)"/>
     <use xlink:href="#DejaVuSans-20" transform="translate(3050.574219 0)"/>
     <use xlink:href="#DejaVuSans-74" transform="translate(3082.361328 0)"/>
     <use xlink:href="#DejaVuSans-68" transform="translate(3121.570312 0)"/>
     <use xlink:href="#DejaVuSans-65" transform="translate(3184.949219 0)"/>
     <use xlink:href="#DejaVuSans-20" transform="translate(3246.472656 0)"/>
     <use xlink:href="#DejaVuSans-68" transform="translate(3278.259766 0)"/>
     <use xlink:href="#DejaVuSans-6f" transform="translate(3341.638672 0)"/>
     <use xlink:href="#DejaVuSans-73" transform="translate(3402.820312 0)"/>
     <use xlink:href="#DejaVuSans-74" transform="translate(3454.919922 0)"/>
     <use xlink:href="#DejaVuSans-20" transform="translate(3494.128906 0)"/>
     <use xlink:href="#DejaVuSans-62" transform="translate(3525.916016 0)"/>
     <use xlink:href="#DejaVuSans-6f" transform="translate(3589.392578 0)"/>
     <use xlink:href="#DejaVuSans-61" transform="translate(3650.574219 0)"/>
     <use xlink:href="#DejaVuSans-72" transform="translate(3711.853516 0)"/>
     <use xlink:href="#DejaVuSans-64" transform="translate(3751.216797 0)"/>
     <use xlink:href="#DejaVuSans-2e" transform="translate(3814.693359 0)"/>
    </g>
   </g>
  </g>
 </g>
 <defs>
  <clipPath id="p1034adc38c">
   <rect x="7.2" y="7.2" width="842.4" height="554.4"/>
  </clipPath>
 </defs>
</svg>
