<svg xmlns="http://www.w3.org/2000/svg" width="1200" height="900" viewBox="0 0 1200 900" role="img" aria-labelledby="title desc">
  <title id="title">Contoh wiring sensor 0 sampai 5 volt ke ESP32 melalui Analog Signal Isolator</title>
  <desc id="desc">Sensor di sisi kiri, modul isolator di tengah, dan ESP32 di sisi kanan. Ground sensor dan ESP32 tetap terpisah.</desc>
  <style>
    text { font-family: Arial, Helvetica, sans-serif; fill: #16283a; }
    .title { font-size: 34px; font-weight: 700; }
    .sub { font-size: 18px; fill: #516272; }
    .head { font-size: 25px; font-weight: 700; }
    .label { font-size: 20px; font-weight: 700; }
    .small { font-size: 16px; }
    .white { fill: #ffffff; }
    .red { fill: #c62525; }
    .yellow { fill: #b57e00; }
    .blue { fill: #1465a8; }
    .box { stroke: #1e4e76; stroke-width: 3; rx: 18; }
    .wire { fill: none; stroke-width: 6; stroke-linecap: round; stroke-linejoin: round; }
  </style>
  <rect width="1200" height="900" fill="#f5f8fb"/>
  <text x="600" y="58" class="title" text-anchor="middle">CONTOH WIRING: SENSOR 0–5 V → ESP32</text>
  <text x="600" y="91" class="sub" text-anchor="middle">Gunakan hanya untuk PCB yang bertuliskan AIN / AOUT</text>

  <rect x="55" y="180" width="270" height="390" class="box" fill="#e9f6ec"/>
  <text x="190" y="228" class="head" text-anchor="middle">SENSOR 0–5 V</text>
  <text x="190" y="257" class="small" text-anchor="middle">output analog yang sudah dikondisikan</text>
  <rect x="95" y="310" width="190" height="55" rx="8" fill="#ffffff" stroke="#9cbd9f"/>
  <text x="120" y="345" class="label">VCC</text><text x="260" y="345" class="small" text-anchor="end">+5 V</text>
  <rect x="95" y="385" width="190" height="55" rx="8" fill="#ffffff" stroke="#9cbd9f"/>
  <text x="120" y="420" class="label">GND</text><text x="260" y="420" class="small" text-anchor="end">ground sensor</text>
  <rect x="95" y="460" width="190" height="55" rx="8" fill="#ffffff" stroke="#9cbd9f"/>
  <text x="120" y="495" class="label">OUT</text><text x="260" y="495" class="small" text-anchor="end">0–5 V</text>

  <rect x="405" y="140" width="390" height="500" class="box" fill="#ffffff"/>
  <text x="600" y="188" class="head" text-anchor="middle">ANALOG SIGNAL ISOLATOR</text>
  <rect x="435" y="230" width="130" height="270" rx="12" fill="#e8f6ea" stroke="#4a9161" stroke-width="2"/>
  <text x="500" y="265" class="label" text-anchor="middle">SENSOR SIDE</text>
  <text x="500" y="335" class="label" text-anchor="middle">5V</text>
  <text x="500" y="395" class="label" text-anchor="middle">GND</text>
  <text x="500" y="455" class="label" text-anchor="middle">AIN</text>
  <rect x="635" y="230" width="130" height="270" rx="12" fill="#e8f2fb" stroke="#3b76aa" stroke-width="2"/>
  <text x="700" y="265" class="label" text-anchor="middle">MCU SIDE</text>
  <text x="700" y="335" class="label" text-anchor="middle">5V</text>
  <text x="700" y="395" class="label" text-anchor="middle">GND</text>
  <text x="700" y="455" class="label" text-anchor="middle">AOUT</text>
  <rect x="574" y="230" width="52" height="270" rx="4" fill="#313b43"/>
  <text x="600" y="355" class="small white" text-anchor="middle" transform="rotate(-90 600 355)">ISOLATION BARRIER</text>
  <rect x="442" y="535" width="315" height="70" rx="10" fill="#fff2cc" stroke="#d39b00" stroke-width="2"/>
  <text x="600" y="565" class="label" text-anchor="middle">UNTUK ESP32: FIT M2.4V1 SAJA</text>
  <text x="600" y="590" class="small" text-anchor="middle">Jangan pasang M3.3V1 atau M5V1 bersamaan.</text>

  <rect x="875" y="180" width="270" height="390" class="box" fill="#e8f2fb"/>
  <text x="1010" y="228" class="head" text-anchor="middle">ESP32 DEV BOARD</text>
  <text x="1010" y="257" class="small" text-anchor="middle">contoh: GPIO34 sebagai ADC</text>
  <rect x="915" y="310" width="190" height="55" rx="8" fill="#ffffff" stroke="#9cb9d2"/>
  <text x="940" y="345" class="label">5V</text><text x="1080" y="345" class="small" text-anchor="end">dari USB / PSU</text>
  <rect x="915" y="385" width="190" height="55" rx="8" fill="#ffffff" stroke="#9cb9d2"/>
  <text x="940" y="420" class="label">GND</text><text x="1080" y="420" class="small" text-anchor="end">ground ESP32</text>
  <rect x="915" y="460" width="190" height="55" rx="8" fill="#ffffff" stroke="#9cb9d2"/>
  <text x="940" y="495" class="label">GPIO34</text><text x="1080" y="495" class="small" text-anchor="end">ADC input</text>

  <path d="M285 337 H360 V335 H435" class="wire" stroke="#e23a35"/>
  <path d="M285 412 H360 V395 H435" class="wire" stroke="#222b33"/>
  <path d="M285 487 H360 V455 H435" class="wire" stroke="#e0a100"/>
  <path d="M765 335 H840 V337 H915" class="wire" stroke="#e23a35"/>
  <path d="M765 395 H840 V412 H915" class="wire" stroke="#222b33"/>
  <path d="M765 455 H840 V487 H915" class="wire" stroke="#1675c1"/>
  <text x="345" y="305" class="small red">catu sensor</text>
  <text x="332" y="535" class="small yellow">sinyal 0–5 V</text>
  <text x="828" y="535" class="small blue">sinyal ke ADC</text>

  <rect x="105" y="700" width="990" height="125" rx="14" fill="#fff3d7" stroke="#d39b00" stroke-width="3"/>
  <text x="600" y="746" class="head" text-anchor="middle" fill="#824c00">PENTING: JANGAN MENYATUKAN DUA GROUND</text>
  <text x="600" y="782" class="label" text-anchor="middle">GND sensor hanya ke SENSOR SIDE. GND ESP32 hanya ke MCU SIDE.</text>
  <text x="600" y="810" class="small" text-anchor="middle">Jika ground tersambung melalui kabel lain, USB, atau alat ukur, fungsi isolasi hilang.</text>
</svg>
